<?xml version="1.0" standalone="no"?>
<!DOCTYPE svg PUBLIC "-//W3C//DTD SVG 20010904//EN"
 "http://www.w3.org/TR/2001/REC-SVG-20010904/DTD/svg10.dtd">
<svg version="1.0" xmlns="http://www.w3.org/2000/svg"
 width="275.000000pt" height="183.000000pt" viewBox="0 0 275.000000 183.000000"
 preserveAspectRatio="xMidYMid meet">

<g transform="translate(0.000000,183.000000) scale(0.100000,-0.100000)"
fill="#000000" stroke="none">
<path d="M742 1778 c-5 -29 -8 -70 -6 -92 5 -62 43 -246 54 -264 10 -18 7 8
-10 92 -6 25 -4 52 5 80 22 70 55 135 73 144 20 10 237 -20 226 -31 -4 -4 -2
-7 4 -7 6 0 14 5 17 10 4 6 10 8 15 5 5 -3 19 -1 30 5 14 8 25 8 33 2 13 -11
47 7 47 26 0 13 26 23 45 16 8 -4 15 -1 15 5 0 6 -5 11 -12 11 -6 0 -9 3 -6 6
3 3 15 0 27 -7 17 -12 23 -10 41 10 11 13 20 20 20 15 0 -15 58 -14 63 1 8 19
69 11 96 -12 12 -10 36 -42 53 -70 18 -29 36 -53 40 -53 4 0 8 -6 8 -13 0 -18
24 -67 33 -67 4 0 7 -12 7 -26 0 -14 3 -23 8 -20 4 2 8 -28 8 -67 1 -49 10
-96 27 -147 22 -64 39 -79 35 -30 -6 71 3 107 38 148 l37 42 -2 128 c-2 157
-4 184 -14 200 -6 9 -123 12 -526 12 l-518 0 -11 -52z m1008 -238 c0 -5 -4
-10 -10 -10 -5 0 -10 5 -10 10 0 6 5 10 10 10 6 0 10 -4 10 -10z"/>
<path d="M1855 1418 c4 -24 11 -49 15 -57 12 -22 18 29 8 67 -13 49 -31 41
-23 -10z"/>
<path d="M1265 1408 c-11 -6 -26 -14 -33 -17 -7 -3 -21 -18 -29 -33 -14 -22
-15 -28 -2 -40 8 -8 20 -13 27 -10 9 3 10 -3 3 -20 -20 -55 34 -100 137 -114
43 -5 53 -4 58 10 4 10 13 15 20 12 8 -3 14 1 14 9 0 8 -4 15 -10 15 -18 0
-11 28 11 44 19 13 24 13 45 -1 22 -14 24 -14 30 1 7 19 -10 35 -69 65 -21 10
-35 21 -30 24 11 6 86 21 96 19 12 -3 8 16 -5 25 -20 12 -36 14 -143 18 -61 2
-108 0 -120 -7z m94 -147 c-15 -5 -22 6 -14 19 6 9 10 9 16 -1 5 -8 4 -15 -2
-18z m101 25 c0 -3 -4 -8 -10 -11 -5 -3 -10 -1 -10 4 0 6 5 11 10 11 6 0 10
-2 10 -4z"/>
<path d="M918 1345 c-26 -6 -50 -10 -53 -7 -3 3 -5 1 -5 -5 0 -6 -9 -13 -19
-16 -12 -3 -18 -12 -16 -23 1 -11 9 -17 16 -15 8 2 39 6 69 8 l55 4 -32 -15
c-29 -13 -64 -60 -52 -70 2 -2 18 -6 34 -10 18 -4 25 -3 17 2 -15 10 -7 38 14
46 9 4 19 -6 28 -29 8 -19 20 -35 26 -35 6 0 8 -4 5 -10 -12 -20 25 -9 51 15
38 36 27 67 -33 94 -27 11 -38 18 -26 15 12 -2 24 0 28 6 3 6 11 8 16 5 5 -4
9 -2 9 2 0 11 -29 51 -30 41 0 -4 -12 -3 -28 1 -16 5 -47 3 -74 -4z m21 -88
c-2 -1 -15 -11 -29 -22 l-25 -20 19 23 c11 12 24 22 29 22 6 0 8 -1 6 -3z"/>
<path d="M1784 1304 c8 -61 17 -70 46 -46 17 14 21 25 17 44 -4 14 -15 28 -24
32 -10 3 -24 9 -32 12 -12 6 -13 -2 -7 -42z"/>
<path d="M1480 1219 c0 -5 5 -7 10 -4 6 3 10 8 10 11 0 2 -4 4 -10 4 -5 0 -10
-5 -10 -11z"/>
<path d="M1306 1043 c3 -21 6 -40 6 -43 0 -23 -5 -30 -23 -30 -26 0 -52 -14
-83 -45 -14 -14 -31 -25 -38 -24 -10 0 -10 2 0 6 15 6 6 23 -14 23 -12 0 -13
-4 -2 -22 7 -13 13 -38 14 -56 1 -41 -21 -55 -84 -50 -42 3 -47 1 -50 -19 -3
-17 1 -20 17 -16 12 3 21 10 21 15 0 6 27 9 69 6 46 -2 67 0 63 7 -3 6 0 5 9
-1 8 -6 21 -14 29 -17 10 -3 4 -9 -18 -17 -31 -11 -33 -16 -28 -43 3 -16 6
-34 6 -38 0 -5 16 -17 35 -26 35 -17 43 -35 26 -61 -6 -11 -10 -10 -15 4 -6
15 -9 16 -16 4 -5 -8 -5 -21 0 -30 9 -16 -14 -53 -40 -63 -10 -3 -3 -8 17 -12
18 -4 38 -14 44 -21 6 -8 18 -14 26 -14 13 0 13 3 2 16 -11 14 -6 15 52 13 56
-3 72 0 114 25 52 30 226 198 245 238 6 13 -5 4 -25 -19 -19 -23 -59 -59 -88
-80 -29 -20 -59 -44 -67 -53 -8 -9 -28 -25 -45 -37 -27 -19 -31 -19 -45 -5 -8
9 -18 23 -22 31 -4 10 -7 11 -7 4 -1 -7 -6 -13 -12 -13 -5 0 -8 4 -4 9 3 5 1
12 -5 16 -5 3 -7 18 -4 31 5 21 0 32 -29 59 -24 23 -34 40 -30 53 3 12 -2 22
-12 26 -15 5 -15 8 -1 21 8 9 32 22 54 29 35 13 41 12 80 -11 24 -15 42 -33
42 -43 0 -10 7 -23 15 -30 22 -18 40 26 28 71 -5 19 -6 50 -2 69 6 25 3 42 -8
60 -24 39 -65 80 -80 80 -7 0 -13 4 -13 9 0 14 -65 51 -89 51 -20 0 -21 -4
-15 -37z m178 -149 c4 -10 2 -22 -4 -28 -7 -7 -10 -6 -10 3 0 7 -5 9 -12 5 -7
-5 -9 -2 -6 8 4 9 -4 21 -23 32 -16 9 -29 21 -29 27 0 15 77 -28 84 -47z m-90
-18 c-9 -29 -22 -36 -68 -36 -37 0 -38 1 -23 18 10 10 17 28 17 40 0 14 5 20
14 16 8 -3 17 0 21 6 12 19 46 -20 39 -44z m-154 -36 c0 -14 -38 -32 -51 -24
-6 4 -1 11 13 19 29 16 38 18 38 5z m105 -220 c3 -6 -5 -10 -19 -10 -14 0 -28
5 -31 10 -3 6 5 10 19 10 14 0 28 -4 31 -10z"/>
<path d="M1016 991 c-9 -10 -19 -36 -22 -57 l-6 -39 22 25 c48 57 54 124 6 71z"/>
<path d="M1812 948 c14 -26 24 -66 26 -103 3 -51 -2 -75 -36 -165 -71 -188
-142 -415 -142 -453 0 -8 -15 -62 -34 -120 l-34 -107 579 0 579 0 0 172 0 172
-32 29 c-64 57 -202 139 -353 212 -85 40 -164 77 -176 80 -44 14 -176 106
-187 130 -6 13 -33 40 -59 60 -26 19 -63 53 -81 75 -18 22 -42 45 -53 50 -18
10 -18 8 3 -32z"/>
<path d="M905 710 c-38 -8 -203 -74 -236 -95 -29 -19 -68 -80 -78 -125 -11
-49 -20 -338 -10 -342 3 -2 9 -16 13 -32 7 -27 6 -28 -10 -15 -16 12 -17 12
-11 -3 3 -10 3 -18 -2 -18 -4 0 -3 -18 2 -40 l11 -40 177 0 c207 0 184 -20
194 165 8 134 35 247 65 268 10 7 30 44 43 81 l25 67 -56 69 c-59 72 -62 73
-127 60z m-245 -580 c0 -11 -2 -20 -4 -20 -2 0 -6 9 -9 20 -3 11 -1 20 4 20 5
0 9 -9 9 -20z m47 -2 c-3 -8 -6 -5 -6 6 -1 11 2 17 5 13 3 -3 4 -12 1 -19z
m-23 -3 c3 -8 1 -15 -4 -15 -6 0 -10 7 -10 15 0 8 2 15 4 15 2 0 6 -7 10 -15z"/>
<path d="M1212 408 c-39 -8 -41 -11 -31 -30 12 -22 13 -149 3 -205 -4 -21 -2
-33 5 -33 7 0 9 -22 5 -70 l-6 -70 99 0 100 0 -5 48 c-6 69 13 127 60 178 47
51 44 60 -34 100 -27 14 -72 39 -101 58 -47 29 -56 32 -95 24z"/>
</g>
</svg>
