<?xml version="1.0" standalone="no"?>
<!DOCTYPE svg PUBLIC "-//W3C//DTD SVG 20010904//EN"
 "http://www.w3.org/TR/2001/REC-SVG-20010904/DTD/svg10.dtd">
<svg version="1.0" xmlns="http://www.w3.org/2000/svg"
 width="220.000000pt" height="229.000000pt" viewBox="0 0 220.000000 229.000000"
 preserveAspectRatio="xMidYMid meet">

<g transform="translate(0.000000,229.000000) scale(0.100000,-0.100000)"
fill="#000000" stroke="none">
<path d="M1190 2116 c-121 -32 -241 -163 -318 -346 -52 -124 -61 -161 -163
-664 -7 -34 -20 -58 -43 -80 -24 -22 -39 -50 -51 -93 -10 -35 -24 -68 -31 -74
-8 -6 -14 -28 -14 -48 -1 -20 -8 -54 -16 -76 -9 -22 -22 -69 -29 -105 -8 -36
-28 -105 -45 -155 -19 -53 -27 -91 -21 -93 12 -4 3 -32 -11 -32 -5 0 -7 4 -3
9 8 14 -9 21 -25 10 -24 -15 17 -39 64 -38 34 1 37 2 16 8 -31 9 -33 35 -3 39
18 3 21 0 17 -13 -5 -13 -2 -15 17 -11 63 13 114 16 99 6 -9 -6 -10 -10 -3
-10 6 0 15 -9 18 -20 3 -11 11 -20 16 -20 6 0 7 5 3 11 -9 15 27 79 44 79 8 0
12 -6 9 -15 -8 -18 13 -32 23 -15 5 9 9 9 14 1 4 -6 1 -11 -6 -11 -7 0 0 -12
16 -27 28 -23 29 -26 12 -38 -13 -10 -14 -14 -4 -18 8 -3 5 -6 -7 -7 l-20 -1
20 -9 c18 -8 18 -9 -5 -9 -20 -1 -22 -3 -10 -11 10 -7 4 -8 -20 -4 -19 4 -52
6 -73 6 -32 0 -35 2 -21 13 14 9 14 14 4 20 -9 5 -11 4 -6 -3 9 -15 11 -15
-47 3 -31 9 -55 11 -70 5 -12 -5 -17 -9 -11 -9 7 -1 14 -9 16 -19 5 -16 1 -17
-42 -8 -43 9 -47 11 -37 28 8 11 19 16 32 13 12 -4 8 1 -9 11 -41 23 -54 5
-66 -91 -9 -70 -8 -88 9 -140 l19 -60 679 -3 679 -2 11 31 c7 18 10 36 7 40
-3 5 -1 9 4 9 16 0 23 31 11 46 -9 11 -8 14 5 14 9 0 16 7 16 15 0 8 -4 15 -9
15 -12 0 -6 45 10 85 7 17 11 36 10 43 -1 6 3 12 9 12 5 0 10 5 10 11 0 5 -5
7 -11 3 -7 -4 -9 1 -7 12 2 11 11 18 21 18 12 -1 17 6 17 24 0 25 -1 25 -15 6
-14 -18 -14 -17 -5 8 5 16 6 28 0 28 -4 0 -10 -8 -12 -17 -3 -15 -5 -14 -10 5
-3 12 -2 20 3 16 13 -8 11 10 -3 26 -11 12 -10 12 4 2 11 -9 18 -10 23 -2 3 5
1 10 -4 10 -6 0 -11 5 -11 11 0 5 5 7 11 3 7 -4 9 2 7 17 -2 13 -9 23 -16 22
-6 -2 -12 2 -12 7 0 6 5 10 10 10 17 0 11 22 -12 43 -23 19 -23 19 -1 13 12
-4 24 -3 27 2 10 16 -15 82 -34 92 -13 7 -20 21 -19 38 0 18 3 22 7 12 7 -16
42 -24 42 -9 0 4 -9 25 -21 46 -20 36 -20 37 -1 14 l20 -25 -5 30 c-3 16 -14
38 -24 49 -18 21 -19 62 -1 58 6 -1 7 7 4 19 -5 20 -6 20 -12 4 -5 -15 -8 -16
-18 -4 -14 17 -4 60 12 52 6 -3 3 1 -8 10 -10 8 -15 19 -11 25 3 6 -1 11 -9
11 -9 0 -16 -9 -16 -21 0 -29 -17 -15 -22 19 -4 26 -2 28 27 24 29 -3 28 -2
-10 16 -27 13 -42 15 -47 8 -4 -7 -9 -4 -13 6 -4 9 -13 14 -21 11 -12 -4 -11
-8 3 -19 14 -11 15 -13 3 -14 -9 0 -2 -9 15 -20 26 -18 27 -20 8 -17 -27 4
-34 10 -37 32 -1 10 -13 26 -27 36 l-24 18 22 8 21 8 -24 59 c-17 40 -30 98
-39 184 -8 69 -12 129 -9 133 2 4 -2 40 -10 81 -9 40 -19 96 -25 123 -41 219
-202 448 -313 444 -13 0 -43 -6 -68 -13z m158 -171 c24 -23 42 -49 42 -62 0
-12 10 -43 22 -70 19 -40 22 -66 22 -160 0 -100 2 -109 13 -85 l13 27 -4 -27
c-1 -15 1 -25 5 -22 5 3 9 -5 9 -18 0 -18 -2 -20 -10 -8 -6 9 -10 11 -10 3 0
-7 -7 -10 -15 -7 -9 4 -15 0 -15 -9 0 -8 -9 -26 -20 -40 -21 -27 -26 -42 -10
-32 6 4 8 -26 4 -87 -6 -89 -8 -96 -49 -158 -24 -36 -48 -85 -54 -108 -10 -46
-35 -82 -57 -82 -7 0 -16 -4 -19 -10 -4 -6 1 -7 12 -3 14 5 15 3 6 -7 -14 -15
-36 -3 -29 16 7 19 -1 17 -24 -6 -30 -30 -25 -42 16 -35 22 3 53 20 76 41 22
20 42 34 44 31 8 -8 -55 -137 -67 -137 -7 0 -10 -3 -6 -6 3 -4 -25 -68 -62
-143 -75 -150 -121 -276 -121 -332 0 -13 -6 -44 -14 -69 -11 -35 -18 -45 -35
-44 -16 0 -18 -2 -10 -13 18 -21 -14 -16 -44 7 -30 24 -50 27 -21 4 18 -15 17
-15 -6 -2 -14 8 -36 37 -50 64 -22 44 -25 60 -24 159 1 62 8 136 17 170 8 33
18 77 21 98 4 20 13 37 20 37 10 0 7 19 -12 76 l-24 76 21 29 c12 15 21 31 21
34 0 12 75 114 86 119 26 10 33 -9 19 -49 -18 -52 -19 -90 -1 -104 12 -10 17
-5 27 28 7 23 16 41 21 41 13 0 9 -30 -7 -46 -8 -9 -15 -20 -15 -25 0 -15 36
-10 50 6 12 15 12 24 -5 150 l-5 40 14 -29 c13 -29 14 -29 25 -8 6 11 11 40
11 63 0 35 6 49 32 76 18 19 42 33 55 33 27 0 98 34 109 51 7 13 -1 11 -90
-14 -74 -21 -126 -9 -171 39 -21 21 -41 49 -46 62 -5 13 -12 21 -17 18 -4 -2
-6 13 -4 34 2 23 -3 52 -12 71 -9 18 -16 40 -16 50 0 25 30 51 52 46 10 -3 16
-1 12 4 -3 5 3 9 13 9 10 0 28 3 41 6 18 5 21 3 16 -10 -3 -9 -11 -13 -17 -9
-6 4 -7 1 -2 -7 4 -7 8 -26 9 -43 1 -21 7 -31 19 -33 9 -1 15 2 11 7 -3 5 0 9
7 9 10 0 10 3 1 12 -10 10 -15 10 -22 -2 -23 -36 -9 15 15 56 24 40 24 46 13
85 -13 43 -33 57 -92 64 -32 4 -48 15 -22 15 9 0 15 4 12 8 -3 5 6 25 19 44
13 20 21 39 17 43 -4 5 -2 5 5 1 6 -3 15 0 20 7 14 24 65 37 133 34 61 -2 68
-5 108 -42z m-238 -155 c8 -5 11 -10 6 -10 -5 0 -2 -8 5 -17 13 -15 11 -16
-11 -10 -14 4 -31 7 -39 7 -11 0 -11 3 0 17 13 15 11 16 -24 10 -22 -3 -35 -2
-32 4 8 12 76 11 95 -1z m-503 -1397 c2 -6 -7 -8 -23 -5 -19 3 -22 7 -12 13
15 10 30 7 35 -8z m1220 -24 c-8 -21 -13 -26 -15 -15 -2 10 2 23 8 31 18 22
20 18 7 -16z m4 -72 c-10 -9 -11 -8 -5 6 3 10 9 15 12 12 3 -3 0 -11 -7 -18z
m-411 3 c0 -5 7 -10 16 -10 8 0 12 -5 9 -11 -4 -6 3 -17 15 -26 19 -14 20 -17
6 -32 -13 -14 -13 -20 -3 -31 9 -10 9 -11 0 -6 -7 4 -13 2 -13 -3 0 -6 -10
-11 -22 -11 -13 0 -30 -5 -38 -10 -12 -8 -11 -10 8 -10 12 0 22 -3 22 -8 0 -4
-19 -6 -42 -5 -39 3 -41 2 -18 -8 l25 -12 -33 -10 c-23 -7 -44 -7 -72 2 l-39
12 5 77 c3 42 7 82 9 89 3 7 31 13 72 16 37 2 74 4 81 5 6 1 12 -2 12 -8z
m-844 -45 c18 -14 18 -14 -4 -15 -13 0 -21 4 -17 9 3 5 -3 12 -12 14 -14 4
-14 5 -2 6 8 0 24 -6 35 -14z m1236 -7 c-7 -7 -12 -8 -12 -2 0 14 12 26 19 19
2 -3 -1 -11 -7 -17z"/>
<path d="M1295 1834 c-6 -1 -22 -5 -37 -8 -51 -12 -29 -24 32 -19 49 5 64 2
80 -12 11 -10 20 -14 20 -8 0 24 -63 55 -95 47z"/>
<path d="M1276 1791 c-3 -4 6 -8 20 -9 13 -1 24 0 24 2 0 7 -40 14 -44 7z"/>
<path d="M1327 1777 c-5 -12 -14 -15 -36 -11 -23 5 -32 2 -41 -15 -6 -12 -8
-26 -5 -31 10 -16 111 -12 125 5 15 18 6 45 -14 45 -8 0 -16 5 -18 12 -3 8 -7
6 -11 -5z"/>
<path d="M1180 1630 c20 -13 33 -13 25 0 -3 6 -14 10 -23 10 -15 0 -15 -2 -2
-10z"/>
<path d="M1090 1525 c-13 -15 -6 -35 13 -35 7 0 18 10 25 21 14 22 34 22 122
4 22 -5 21 -3 -5 9 -40 20 -139 21 -155 1z"/>
<path d="M1350 1410 c-8 -5 -10 -10 -5 -10 6 0 17 5 25 10 8 5 11 10 5 10 -5
0 -17 -5 -25 -10z"/>
<path d="M1154 914 c-18 -14 -18 -15 4 -4 12 6 22 13 22 15 0 8 -5 6 -26 -11z"/>
<path d="M1042 825 c0 -16 2 -22 5 -12 2 9 2 23 0 30 -3 6 -5 -1 -5 -18z"/>
<path d="M1830 860 c0 -5 5 -10 10 -10 6 0 10 5 10 10 0 6 -4 10 -10 10 -5 0
-10 -4 -10 -10z"/>
<path d="M390 314 c0 -17 22 -14 28 4 2 7 -3 12 -12 12 -9 0 -16 -7 -16 -16z"/>
<path d="M565 320 c22 -5 44 -4 50 1 5 5 -11 9 -40 8 l-50 -1 40 -8z"/>
<path d="M495 311 c-8 -14 10 -22 30 -15 13 5 14 8 3 15 -17 11 -26 11 -33 0z"/>
<path d="M690 276 c0 -2 9 -6 20 -9 11 -3 18 -1 14 4 -5 9 -34 13 -34 5z"/>
<path d="M1840 220 c0 -5 5 -10 11 -10 5 0 7 5 4 10 -3 6 -8 10 -11 10 -2 0
-4 -4 -4 -10z"/>
</g>
</svg>
