<?xml version="1.0" standalone="no"?>
<!DOCTYPE svg PUBLIC "-//W3C//DTD SVG 20010904//EN"
 "http://www.w3.org/TR/2001/REC-SVG-20010904/DTD/svg10.dtd">
<svg version="1.0" xmlns="http://www.w3.org/2000/svg"
 width="800.000000pt" height="600.000000pt" viewBox="0 0 800.000000 600.000000"
 preserveAspectRatio="xMidYMid meet">

<g transform="translate(0.000000,600.000000) scale(0.100000,-0.100000)"
fill="#000000" stroke="none">
<path d="M4305 5346 c-22 -7 -53 -19 -70 -28 -16 -8 -52 -21 -79 -27 -27 -7
-62 -21 -77 -32 -16 -11 -66 -26 -116 -35 -85 -15 -113 -26 -113 -45 0 -5 10
-3 23 5 12 8 55 19 96 25 41 7 101 25 135 41 33 17 68 30 77 30 9 0 41 11 70
25 30 13 73 27 96 31 37 6 45 3 67 -21 19 -20 26 -24 26 -12 0 24 -40 57 -69
56 -14 0 -44 -6 -66 -13z"/>
<path d="M4518 5353 c-9 -2 -23 -14 -31 -27 l-15 -22 41 11 c59 16 78 26 71
36 -5 9 -36 10 -66 2z"/>
<path d="M4807 5251 c-4 -24 -16 -56 -26 -70 -26 -37 -33 -51 -27 -51 3 0 19
20 36 45 24 35 30 54 28 83 l-3 37 -8 -44z"/>
<path d="M4477 5262 c-33 -36 -36 -66 -26 -234 12 -191 13 -198 37 -175 14 15
15 22 4 50 -7 17 -17 91 -23 163 -11 125 -10 132 10 172 23 46 23 52 -2 24z"/>
<path d="M4850 5052 c0 -223 3 -242 40 -242 12 1 12 2 -2 11 -16 9 -18 31 -18
229 0 140 -4 220 -10 220 -6 0 -10 -79 -10 -218z"/>
<path d="M4516 5235 c-9 -26 -7 -32 5 -12 6 10 9 21 6 23 -2 3 -7 -2 -11 -11z"/>
<path d="M4591 5203 c-1 -43 4 -57 25 -80 24 -26 24 -27 10 -3 -9 14 -20 50
-25 80 l-9 55 -1 -52z"/>
<path d="M4935 5220 c10 -11 23 -20 28 -20 6 0 2 9 -8 20 -10 11 -23 20 -28
20 -6 0 -2 -9 8 -20z"/>
<path d="M3732 5180 c-30 -10 -58 -22 -64 -28 -6 -6 -45 -8 -102 -5 -118 7
-146 -3 -146 -52 0 -20 -7 -50 -16 -66 -8 -17 -14 -40 -12 -52 3 -19 7 -15 27
21 12 24 26 63 29 85 l7 42 74 3 c77 3 116 -10 62 -21 -26 -5 -32 -13 -46 -58
-17 -61 -18 -70 -5 -49 15 23 13 -3 -5 -70 -18 -66 -17 -60 -5 -60 6 0 18 16
27 35 15 31 15 42 5 81 -16 60 -1 92 51 110 21 8 51 24 67 37 15 13 55 31 89
41 33 9 61 19 61 22 0 9 -47 2 -98 -16z"/>
<path d="M4148 5193 c7 -3 16 -2 19 1 4 3 -2 6 -13 5 -11 0 -14 -3 -6 -6z"/>
<path d="M4662 5168 c-23 -35 -20 -54 10 -64 13 -4 28 2 44 17 13 12 22 25 19
27 -3 3 0 11 6 18 16 19 2 34 -31 34 -21 0 -33 -8 -48 -32z m64 -25 c-7 -7
-26 7 -26 19 0 6 6 6 15 -2 9 -7 13 -15 11 -17z"/>
<path d="M3935 5145 c-27 -7 -41 -13 -30 -14 11 0 43 6 70 13 63 18 28 19 -40
1z"/>
<path d="M5100 5106 c0 -12 -3 -52 -6 -87 -4 -46 -2 -59 5 -48 13 20 30 129
24 146 -8 21 -23 15 -23 -11z"/>
<path d="M5165 5093 c-18 -86 -28 -119 -41 -145 -8 -15 -11 -28 -6 -28 15 0
71 150 72 193 0 20 -20 4 -25 -20z"/>
<path d="M3868 5104 c-12 -11 -9 -56 7 -89 l13 -30 0 35 c-1 48 -11 93 -20 84z"/>
<path d="M4303 5103 c9 -2 23 -2 30 0 6 3 -1 5 -18 5 -16 0 -22 -2 -12 -5z"/>
<path d="M4288 5083 c-31 -8 -19 -63 13 -63 24 0 25 30 2 31 -20 1 -12 4 31
14 23 5 27 8 15 16 -15 9 -32 10 -61 2z"/>
<path d="M3822 5050 c0 -19 2 -27 5 -17 2 9 2 25 0 35 -3 9 -5 1 -5 -18z"/>
<path d="M3620 5049 c-7 -11 -10 -23 -7 -25 2 -2 9 7 15 21 14 30 7 33 -8 4z"/>
<path d="M5336 5009 c-7 -21 -14 -170 -8 -164 11 11 30 160 21 169 -5 6 -10 4
-13 -5z"/>
<path d="M3821 4984 c0 -11 3 -14 6 -6 3 7 2 16 -1 19 -3 4 -6 -2 -5 -13z"/>
<path d="M3641 4974 c0 -11 3 -14 6 -6 3 7 2 16 -1 19 -3 4 -6 -2 -5 -13z"/>
<path d="M3700 4950 c-24 -24 -24 -30 -6 -55 12 -16 18 -18 40 -7 30 13 46 60
25 73 -22 14 -37 11 -59 -11z"/>
<path d="M4246 4938 c41 -36 94 -113 94 -137 0 -12 -3 -11 -18 2 -10 9 -26 16
-37 16 -11 0 -42 5 -70 10 -111 22 -202 2 -234 -51 -12 -20 -10 -20 15 4 36
33 75 48 122 47 l37 -1 -31 -7 c-40 -10 -56 -20 -49 -32 4 -5 2 -9 -4 -9 -33
0 -108 -100 -116 -154 -8 -52 -55 -165 -85 -203 -24 -31 -24 -28 -5 27 22 62
18 71 -9 24 -13 -23 -33 -51 -45 -63 -11 -11 -21 -30 -21 -41 0 -11 -11 -50
-25 -87 -42 -112 -93 -330 -106 -453 -12 -120 -7 -290 11 -350 6 -19 15 -87
21 -150 10 -117 52 -279 90 -349 24 -44 25 -15 3 44 -31 78 -66 221 -75 305
-6 47 -16 112 -23 145 -10 44 -11 98 -6 205 9 166 43 305 108 438 46 96 49
103 23 72 -11 -14 -21 -20 -21 -15 0 24 266 362 277 351 2 -2 -36 -57 -85
-122 -100 -134 -116 -160 -108 -179 2 -7 -2 -19 -10 -26 -39 -32 -75 -100
-119 -224 -4 -11 5 -1 21 22 15 23 30 41 32 39 7 -7 -25 -101 -34 -98 -20 8
-36 -77 -36 -188 0 -102 4 -129 35 -235 19 -66 39 -131 45 -145 5 -14 12 -61
16 -105 4 -50 16 -99 30 -131 25 -54 124 -214 133 -214 5 0 -2 13 -77 134 -23
38 -43 83 -44 100 -2 17 -6 45 -10 61 -6 24 -5 27 4 15 14 -18 8 9 -20 85 -12
34 -15 57 -9 73 5 13 5 21 0 18 -7 -5 -51 97 -51 117 0 13 48 -40 54 -60 4
-14 12 -20 21 -16 11 4 12 10 4 25 -7 14 -7 34 0 66 18 82 13 138 -14 171 -14
16 -25 33 -25 37 0 5 11 -4 24 -21 l24 -30 8 30 c21 84 -4 295 -41 335 -27 30
-19 66 17 75 258 58 323 63 447 36 95 -21 129 -21 75 -1 -46 18 -122 29 -216
32 -49 2 -88 3 -88 3 -1 6 60 177 89 250 22 54 38 101 36 103 -5 5 -33 -58
-63 -138 -77 -207 -85 -221 -131 -235 -21 -7 -23 -5 -17 16 3 13 8 42 11 64 5
39 4 39 -11 -10 -18 -56 -39 -85 -63 -85 -10 0 -12 3 -5 8 5 4 20 37 32 75 12
37 34 86 49 110 15 23 53 95 85 160 32 64 63 117 69 117 8 0 7 -6 -3 -17 -15
-19 -64 -143 -61 -155 2 -4 -13 -41 -32 -82 -19 -42 -33 -76 -31 -76 5 0 64
104 106 184 21 41 50 69 71 71 3 0 20 14 38 32 19 20 46 35 69 38 57 10 61 13
15 14 -43 1 -59 16 -25 24 14 3 13 6 -8 16 -24 11 -24 11 8 6 24 -3 31 -2 26
8 -5 7 -1 7 10 -2 15 -13 20 -10 46 20 22 27 28 29 24 13 -6 -23 10 -41 21
-24 3 5 11 10 17 10 7 0 6 -5 -2 -15 -7 -9 -10 -25 -6 -41 6 -24 9 -25 24 -12
31 27 48 33 28 10 -19 -22 -19 -22 12 -22 17 0 32 -4 34 -9 2 -5 32 -15 68
-21 36 -7 102 -23 148 -37 78 -22 89 -29 163 -100 78 -74 127 -152 143 -225 5
-23 3 -26 -11 -21 -17 6 -17 5 0 -14 9 -11 17 -22 17 -24 0 -2 -51 -3 -114 -1
-82 3 -120 0 -139 -9 -23 -13 -13 -14 96 -14 99 -1 136 -5 197 -25 63 -19 71
-24 50 -30 -24 -6 -24 -7 -4 -13 27 -9 44 -47 45 -100 1 -36 2 -38 9 -17 13
42 11 109 -5 140 -8 16 -12 35 -10 43 3 7 -17 61 -45 119 -27 58 -50 109 -50
114 0 19 -75 156 -104 191 -18 21 -33 42 -32 48 0 5 -30 29 -69 52 -49 29 -91
46 -139 54 -49 9 -63 15 -50 20 32 13 88 10 119 -7 28 -14 29 -14 13 2 -25 25
-125 31 -166 10 -17 -9 -40 -16 -50 -16 -10 0 -45 -9 -78 -19 -32 -11 -60 -18
-62 -16 -6 6 103 54 151 66 26 6 50 15 53 20 7 12 0 11 -88 -11 -80 -20 -130
-41 -160 -68 -33 -28 -19 4 16 37 35 34 83 50 149 51 26 0 36 4 31 11 -6 11
-45 10 -166 -5 -25 -2 -36 0 -31 7 7 12 -14 1 -38 -20 -15 -13 -21 -7 -55 49
-40 66 -89 118 -112 118 -7 0 4 -15 24 -32z m164 -143 c-7 -9 -15 -13 -17 -11
-7 7 7 26 19 26 6 0 6 -6 -2 -15z m-376 -77 c-21 -24 -47 -54 -57 -68 -12 -18
-11 -12 4 20 21 44 77 105 87 95 3 -2 -13 -24 -34 -47z m69 18 c-57 -74 -123
-145 -123 -133 0 19 34 63 89 115 51 48 61 53 34 18z m105 -3 c-10 -2 -28 -2
-40 0 -13 2 -5 4 17 4 22 1 32 -1 23 -4z m-45 -30 c-7 -2 -19 -2 -25 0 -7 3
-2 5 12 5 14 0 19 -2 13 -5z m502 -3 c-16 -4 -39 -8 -50 -8 -16 0 -15 2 5 8
14 4 36 8 50 8 22 0 22 -1 -5 -8z m215 -35 c0 -2 -6 -5 -13 -8 -8 -3 -14 1
-14 8 0 7 6 11 14 8 7 -3 13 -6 13 -8z m-163 -11 c-3 -3 -12 -4 -19 -1 -8 3
-5 6 6 6 11 1 17 -2 13 -5z m180 -14 c1 -16 -1 -17 -12 -7 -11 10 -8 19 10 27
1 0 1 -9 2 -20z m-107 0 c20 -6 21 -8 5 -8 -11 0 -29 3 -40 8 -25 11 1 11 35
0z m108 -36 c18 -7 31 -18 28 -23 -3 -4 12 -21 34 -36 44 -30 53 -42 18 -24
-47 25 -78 51 -72 61 4 7 2 8 -4 4 -7 -4 -29 5 -49 19 -40 28 -26 28 45 -1z
m-976 -184 c-28 -28 -64 -74 -78 -103 -15 -28 -38 -69 -51 -91 -14 -21 -31
-55 -38 -75 -8 -20 -14 -28 -14 -19 -1 23 17 64 50 113 15 22 34 57 42 78 17
40 112 147 131 147 6 0 -13 -23 -42 -50z m-142 -572 c0 -38 -3 -49 -10 -38
-16 25 -11 90 7 90 2 0 3 -24 3 -52z m-4 -154 c-3 -37 -8 -69 -11 -72 -7 -7
-6 103 1 122 12 30 14 16 10 -50z"/>
<path d="M3801 4937 c-13 -21 -12 -21 5 -5 10 10 16 20 13 22 -3 3 -11 -5 -18
-17z"/>
<path d="M3418 4939 c-11 -6 -18 -22 -18 -39 0 -16 -7 -55 -15 -87 -16 -62
-20 -163 -6 -163 7 0 24 119 23 165 -1 11 6 27 15 37 8 9 16 29 16 43 0 18 5
25 19 25 17 0 18 3 8 15 -15 17 -19 18 -42 4z"/>
<path d="M3603 4913 c-8 -21 -19 -46 -24 -55 -6 -10 -5 -19 1 -23 11 -7 35 38
43 83 9 43 0 41 -20 -5z"/>
<path d="M3473 4883 c-23 -51 -29 -89 -49 -310 -12 -138 -25 -316 -28 -395 -9
-194 -25 -427 -36 -518 -6 -41 -12 -165 -16 -275 -3 -110 -7 -240 -9 -290 l-4
-90 10 65 c6 36 12 94 14 130 2 36 9 81 14 100 6 19 11 49 11 66 0 17 6 37 14
44 8 6 12 18 10 25 -3 8 -1 38 5 67 10 53 19 194 27 423 29 816 32 880 53 948
11 37 17 67 15 67 -3 0 -17 -26 -31 -57z m-93 -1268 l-7 -60 -2 56 c0 31 2 59
6 62 10 11 10 7 3 -58z"/>
<path d="M3897 4912 c-9 -13 12 -82 24 -82 6 0 7 15 3 38 -7 40 -18 59 -27 44z"/>
<path d="M4143 4890 c-34 -14 -28 -19 12 -10 21 5 51 4 71 -2 43 -11 58 -3 20
12 -33 12 -73 12 -103 0z"/>
<path d="M5082 4817 c3 -35 13 -76 22 -93 l17 -29 -5 40 c-3 22 -8 64 -12 93
-9 76 -28 67 -22 -11z"/>
<path d="M5547 4437 c-6 -426 4 -595 16 -275 10 246 9 686 -1 692 -5 3 -11
-185 -15 -417z"/>
<path d="M4800 4820 c0 -5 9 -10 20 -10 11 0 20 5 20 10 0 6 -9 10 -20 10 -11
0 -20 -4 -20 -10z"/>
<path d="M4918 4803 c7 -3 16 -2 19 1 4 3 -2 6 -13 5 -11 0 -14 -3 -6 -6z"/>
<path d="M4950 4796 c0 -2 7 -7 16 -10 8 -3 12 -2 9 4 -6 10 -25 14 -25 6z"/>
<path d="M5075 4691 c51 -58 65 -71 65 -63 0 10 -48 62 -75 82 -11 8 -6 -1 10
-19z"/>
<path d="M3330 4678 c0 -18 -29 -441 -34 -508 -7 -83 9 -8 24 110 14 111 26
410 16 410 -3 0 -6 -6 -6 -12z"/>
<path d="M3862 4548 c-13 -22 -22 -42 -20 -44 3 -2 15 14 27 37 13 22 21 42
19 44 -2 2 -14 -14 -26 -37z"/>
<path d="M4259 4548 c-27 -52 -59 -146 -58 -167 0 -9 7 6 15 33 9 27 26 66 39
86 24 39 42 90 31 90 -3 0 -15 -19 -27 -42z"/>
<path d="M5080 4505 c13 -14 26 -25 28 -25 3 0 -5 11 -18 25 -13 14 -26 25
-28 25 -3 0 5 -11 18 -25z"/>
<path d="M4191 4353 c-1 -6 -4 -20 -7 -30 -5 -17 -5 -17 6 0 6 10 9 23 6 30
-3 9 -5 9 -5 0z"/>
<path d="M5231 4355 c-1 -5 8 -37 18 -70 12 -36 19 -50 20 -35 0 23 -37 127
-38 105z"/>
<path d="M3717 4273 c-4 -3 -7 -11 -7 -17 0 -6 5 -5 12 2 6 6 9 14 7 17 -3 3
-9 2 -12 -2z"/>
<path d="M5170 4262 c6 -13 14 -21 18 -18 3 4 -2 14 -12 24 -18 16 -18 16 -6
-6z"/>
<path d="M5210 4219 c34 -63 61 -179 41 -179 -13 0 -39 -61 -52 -121 -6 -30
-19 -78 -30 -107 -10 -29 -19 -65 -19 -80 0 -36 -45 -159 -65 -182 -9 -10 -15
-29 -12 -42 4 -22 4 -21 6 3 0 15 7 32 15 38 7 6 21 33 31 59 9 26 35 84 57
128 28 58 43 104 50 160 6 44 16 86 23 94 22 26 12 128 -17 193 -15 31 -30 57
-33 57 -3 0 -1 -9 5 -21z"/>
<path d="M3656 4170 c-22 -56 -19 -65 5 -11 11 24 18 46 15 48 -2 2 -11 -14
-20 -37z"/>
<path d="M4117 4163 c18 -2 50 -2 70 0 21 2 7 4 -32 4 -38 0 -55 -2 -38 -4z"/>
<path d="M3690 4148 c0 -6 -13 -32 -29 -57 -32 -49 -55 -173 -46 -241 4 -31
-8 -168 -35 -390 -5 -41 -9 -101 -9 -133 -1 -40 -8 -72 -25 -105 -29 -56 -45
-215 -19 -190 7 8 18 39 23 70 5 31 18 75 29 99 18 38 21 62 21 196 0 86 4
153 9 153 5 0 11 53 13 118 6 143 34 356 54 399 17 37 29 93 20 93 -3 0 -6 -5
-6 -12z"/>
<path d="M4030 4151 c0 -4 11 -6 25 -3 14 2 25 6 25 8 0 2 -11 4 -25 4 -14 0
-25 -4 -25 -9z"/>
<path d="M4295 4144 c28 -7 55 -12 60 -10 13 4 -64 26 -90 25 -11 0 3 -7 30
-15z"/>
<path d="M4800 4149 c-130 -25 -170 -51 -184 -117 -11 -47 7 -39 24 11 19 54
71 81 195 101 52 8 73 14 50 14 -22 0 -60 -4 -85 -9z"/>
<path d="M3953 4130 c-24 -11 -43 -22 -43 -25 0 -6 57 17 87 34 29 17 1 11
-44 -9z"/>
<path d="M4108 4144 c-10 -3 -18 -9 -18 -14 0 -5 -8 -11 -17 -13 -14 -4 -13
-5 4 -6 13 -1 24 -10 28 -22 7 -21 7 -21 19 2 11 22 18 24 86 23 76 0 133 -20
185 -63 19 -16 19 -15 4 8 -27 43 -115 81 -199 86 -41 2 -83 2 -92 -1z"/>
<path d="M4953 4143 c9 -2 25 -2 35 0 9 3 1 5 -18 5 -19 0 -27 -2 -17 -5z"/>
<path d="M4009 4113 c-1 -10 -2 -29 -3 -43 -5 -64 -7 -71 -15 -66 -13 8 -21
-86 -19 -239 l1 -140 12 160 c13 167 32 294 45 309 10 10 2 36 -11 36 -5 0
-10 -8 -10 -17z"/>
<path d="M4785 4117 c-78 -21 -112 -42 -125 -81 -20 -61 -3 -202 20 -166 6 8
10 11 10 6 0 -6 9 0 20 12 12 12 27 22 35 22 8 0 15 5 15 10 0 6 -20 10 -45
10 -25 0 -45 5 -45 11 0 5 4 8 8 5 5 -3 44 1 88 9 43 8 134 14 200 15 128 0
135 -3 133 -48 0 -12 -3 -10 -9 6 -6 14 -18 22 -33 22 -24 0 -24 -1 9 -36 38
-40 45 -89 19 -134 -20 -35 -18 -46 4 -26 35 31 63 116 68 201 5 71 3 83 -16
107 -11 14 -42 34 -68 43 -63 22 -222 29 -288 12z m228 -23 c45 -6 46 -7 32
-28 -19 -25 -19 -40 -2 -33 7 3 24 -3 37 -13 l24 -18 -25 -12 c-22 -10 -34 -8
-81 14 -67 32 -168 35 -236 7 -63 -25 -41 -32 31 -9 67 21 158 21 180 -1 9
-10 1 -11 -38 -6 -32 4 -75 1 -120 -10 -128 -30 -135 -31 -135 -3 0 82 160
135 333 112z"/>
<path d="M5098 4113 c7 -3 16 -2 19 1 4 3 -2 6 -13 5 -11 0 -14 -3 -6 -6z"/>
<path d="M3976 4085 c-9 -26 -7 -32 5 -12 6 10 9 21 6 23 -2 3 -7 -2 -11 -11z"/>
<path d="M3919 4074 c-15 -18 -16 -182 -1 -229 8 -23 11 1 13 108 2 75 3 137
3 137 -1 0 -7 -7 -15 -16z"/>
<path d="M4506 4038 c-9 -12 -16 -29 -16 -36 0 -31 -91 -201 -136 -252 -26
-31 -70 -68 -102 -85 -75 -40 -147 -107 -165 -154 -18 -44 -12 -79 23 -139 14
-22 23 -58 25 -94 2 -32 7 -62 10 -68 3 -5 4 -10 1 -10 -3 0 -15 19 -27 43
-12 23 -34 58 -49 77 -15 19 -31 45 -34 58 -4 12 -12 19 -18 16 -14 -9 -3
-218 16 -299 7 -33 17 -82 21 -108 6 -47 33 -132 34 -111 1 6 -4 25 -10 42 -6
16 -9 47 -7 69 3 33 5 28 17 -37 7 -41 20 -88 29 -105 9 -16 17 -37 18 -45 8
-49 26 -97 57 -153 41 -74 130 -330 152 -435 27 -129 18 -220 -27 -285 -11
-15 -15 -27 -9 -27 18 0 60 104 66 165 5 40 2 82 -8 126 -9 36 -15 74 -13 84
3 20 -36 152 -56 189 -11 20 -10 20 8 6 16 -12 15 -10 -2 10 -31 37 -48 71
-31 65 10 -4 12 12 11 77 -2 45 2 89 7 98 8 11 8 9 4 -8 -12 -43 8 -52 117
-51 l99 0 -24 32 c-30 41 -40 57 -33 57 3 0 17 -18 32 -39 18 -28 39 -45 67
-55 25 -8 34 -15 22 -15 -16 -1 -14 -5 13 -21 37 -23 63 -25 80 -8 7 7 12 8
12 2 0 -5 -5 -15 -12 -22 -9 -9 1 -10 43 -6 105 10 122 13 142 31 19 17 19 17
13 -4 -6 -18 -4 -21 13 -18 27 5 26 -3 -4 -105 -14 -46 -25 -95 -24 -109 1
-15 6 -2 13 29 15 68 42 147 61 180 l14 25 1 -24 c0 -14 10 -45 22 -70 l23
-46 5 30 c7 40 19 20 27 -44 3 -31 10 -48 17 -45 6 2 20 -2 31 -11 19 -15 19
-15 -9 -9 -19 5 -31 2 -37 -7 -14 -23 -10 -30 11 -17 16 10 22 10 32 -1 11
-10 10 -12 -2 -10 -8 2 -25 -1 -37 -5 -19 -6 -23 -15 -23 -51 0 -24 -3 -52 -6
-62 -6 -17 -6 -17 8 1 10 13 17 15 22 8 4 -7 16 -12 26 -12 40 0 52 151 17
208 -11 17 8 15 27 -3 27 -27 30 -117 8 -213 -22 -92 -43 -208 -62 -332 -7
-41 -18 -114 -25 -162 -8 -48 -17 -123 -20 -165 -3 -43 -13 -154 -21 -248 -7
-93 -14 -207 -14 -253 0 -77 -9 -129 -47 -260 -8 -29 -13 -55 -10 -58 3 -3 16
0 29 7 12 7 26 12 30 11 3 -1 39 23 80 53 68 50 166 106 185 105 4 -1 -10 -10
-32 -21 -45 -23 -145 -90 -145 -97 0 -6 148 75 198 109 24 16 45 29 48 29 3 0
32 18 65 40 54 37 58 43 49 63 -10 21 -10 21 4 3 14 -17 36 -15 36 4 0 5 -12
22 -26 39 -33 40 -13 41 22 1 l27 -29 34 26 c32 25 33 27 15 37 -10 6 -48 42
-83 81 -43 46 -53 62 -32 47 18 -13 46 -39 62 -59 17 -20 38 -38 48 -39 10 -1
28 -5 39 -9 18 -6 42 14 141 112 132 132 209 222 305 363 132 193 239 410 307
623 27 85 30 105 23 152 -5 30 -8 55 -6 55 2 0 10 -12 17 -27 l15 -27 7 43 c4
23 5 44 2 47 -2 3 -26 0 -52 -6 -27 -6 -62 -8 -79 -4 -27 6 -29 5 -17 -10 18
-21 10 -20 -62 9 -34 13 -80 28 -102 33 -38 7 -40 10 -51 62 -6 30 -18 71 -28
90 l-16 35 6 -45 c4 -25 8 -77 9 -116 2 -41 10 -86 19 -105 16 -32 16 -33 0
-14 -9 11 -22 35 -30 53 -8 17 -18 32 -22 32 -15 0 -12 -54 5 -72 25 -28 -1
-21 -33 9 -16 15 -32 27 -35 26 -4 -1 -14 12 -23 30 -13 28 -16 29 -16 10 0
-15 25 -49 68 -94 65 -69 125 -149 90 -121 -13 11 -13 5 3 -44 11 -32 19 -64
19 -73 0 -9 9 -34 20 -56 l21 -40 -31 33 c-17 19 -32 32 -33 30 -3 -5 -21 -35
-67 -110 -40 -67 -55 -84 -43 -50 4 12 -3 9 -24 -10 -36 -34 -62 -37 -28 -4
36 36 85 142 92 197 4 37 1 55 -12 76 -16 25 -16 26 -2 14 34 -27 27 -3 -15
59 -55 80 -76 95 -168 119 -41 10 -93 29 -115 40 -21 12 -47 21 -57 21 -9 0
-19 4 -23 10 -3 5 21 10 57 12 l63 3 -63 24 c-79 30 -86 40 -19 29 96 -16 160
-32 149 -36 -13 -4 -6 -22 8 -22 15 0 4 32 -14 42 -25 14 -124 37 -161 38 -17
0 -47 11 -68 25 -40 27 -47 23 -21 -13 8 -12 13 -26 9 -32 -10 -16 21 -75 55
-103 18 -16 51 -37 74 -49 42 -21 143 -103 183 -148 13 -14 23 -20 23 -13 0
19 -82 115 -121 141 l-34 24 40 -7 c62 -11 98 -36 127 -90 32 -58 38 -53 8 5
-25 49 -25 58 0 35 28 -26 60 -118 60 -176 0 -55 -15 -98 -62 -176 -35 -57
-64 -80 -48 -38 5 14 7 31 4 38 -2 7 5 39 16 71 24 71 25 88 5 127 -16 29 -88
89 -109 89 -6 0 6 -11 27 -25 20 -14 36 -29 35 -33 -1 -4 6 -21 15 -39 21 -40
21 -65 0 -106 -9 -18 -16 -51 -15 -75 0 -23 -4 -40 -9 -37 -5 4 -6 -1 -3 -9 3
-9 1 -16 -4 -16 -13 0 -3 -37 27 -105 31 -71 18 -66 -17 7 -17 35 -34 87 -37
116 -4 28 -10 50 -15 47 -4 -2 -1 14 7 37 9 27 11 44 4 46 -5 2 -1 18 10 37
25 42 20 63 -30 118 -33 37 -115 97 -132 97 -4 0 -6 -17 -4 -37 l5 -38 -11 38
c-6 20 -15 37 -19 37 -11 0 -18 -56 -10 -72 13 -25 20 -78 10 -78 -19 0 -31
53 -25 105 5 37 2 62 -9 90 -9 21 -14 40 -11 43 3 3 1 10 -4 16 -5 6 -19 38
-31 71 -13 33 -27 65 -32 70 -5 6 -4 -3 2 -20 15 -39 17 -164 3 -189 -8 -15
-12 -7 -17 46 -4 35 -4 76 -1 90 5 18 -1 41 -20 74 -14 27 -23 39 -20 27 3
-12 8 -66 10 -120 2 -54 11 -113 19 -133 8 -19 17 -47 20 -62 3 -15 14 -34 24
-44 16 -17 16 -17 -6 -12 -13 4 -28 0 -37 -8 -13 -13 -14 -11 -9 15 8 38 -5
40 -61 8 -29 -16 -51 -42 -81 -95 -48 -85 -58 -97 -48 -57 4 17 8 37 8 46 0 9
6 15 12 12 7 -2 15 5 19 15 11 35 46 72 88 94 53 26 52 25 37 43 -16 19 -30
19 -30 1 0 -18 -47 -56 -68 -56 -12 0 -10 6 8 25 l24 25 -17 69 c-9 37 -14 76
-11 87 3 10 -2 37 -11 59 -13 33 -14 35 -10 10 4 -29 4 -30 -7 -5 -23 51 -160
325 -165 330 -3 3 -3 -8 1 -25 5 -22 4 -26 -4 -14 -20 34 -23 124 -5 200 9 41
20 99 25 129 4 30 11 68 15 84 10 38 -10 26 -29 -17 l-14 -32 3 50 c2 28 7 82
10 120 8 79 -7 82 -23 5 l-9 -45 -7 50 c-10 66 -34 122 -64 146 -35 27 -46 13
-19 -24 13 -18 28 -39 33 -47 11 -20 -54 35 -79 66 -11 14 -22 23 -25 20 -2
-3 1 -12 8 -21 19 -22 5 -19 -58 16 -76 41 -73 39 -67 49 3 6 15 6 29 0 23 -8
23 -7 16 25 -4 18 -10 38 -14 44 -11 16 0 14 62 -16 30 -16 71 -42 89 -59 18
-17 33 -26 33 -19 0 6 -9 20 -20 30 -20 18 -28 41 -10 30 13 -8 85 12 98 28 8
9 -6 11 -67 9 -70 -4 -149 9 -216 34 -19 7 -20 7 -2 -13 10 -12 17 -32 15 -45
-2 -19 -8 -23 -35 -20 -21 2 -52 -7 -90 -27 -32 -17 -62 -31 -68 -31 -5 0 -37
14 -70 30 -68 34 -89 36 -146 14 -53 -22 -33 -36 37 -28 59 7 57 8 113 -86 41
-69 66 -90 55 -46 -8 33 16 35 64 6 48 -29 62 -13 21 22 l-34 30 60 -31 c33
-16 74 -33 90 -38 l30 -7 -35 -4 c-19 -1 -67 -9 -107 -17 -78 -16 -151 -19
-169 -7 -6 4 -18 21 -26 39 -12 25 -13 30 -2 26 7 -3 16 -13 19 -24 7 -21 25
-26 25 -6 -1 23 -40 98 -49 93 -5 -3 -11 1 -15 9 -3 8 -14 15 -24 15 -24 0
-22 -48 3 -66 10 -8 15 -14 10 -14 -5 0 -21 12 -36 26 -34 32 -63 28 -31 -4
17 -17 19 -22 6 -22 -24 0 -7 -18 25 -25 16 -3 39 -17 52 -31 l23 -25 -84 7
c-47 4 -91 11 -97 17 -9 7 -13 5 -13 -5 0 -22 233 -43 325 -29 39 6 97 11 130
11 l60 0 -30 -25 c-37 -30 -27 -32 25 -5 22 11 50 20 63 20 26 0 52 -22 40
-34 -4 -4 -1 -11 7 -16 12 -7 12 -12 -3 -28 -9 -10 -17 -26 -17 -35 0 -9 -4
-17 -9 -17 -5 0 -4 -12 4 -27 17 -37 30 -127 16 -119 -5 4 -13 28 -17 54 -4
26 -9 41 -12 34 -3 -9 -11 -4 -23 15 -22 33 -25 20 -4 -17 32 -57 10 -68 -31
-15 -23 30 -25 39 -16 59 12 26 5 69 -9 60 -5 -3 -9 -15 -9 -28 0 -12 -5 -27
-11 -33 -17 -17 7 -78 39 -102 15 -11 22 -21 15 -21 -6 0 -15 5 -19 11 -5 8
-9 8 -14 -1 -6 -9 -12 -9 -28 1 -34 21 -38 2 -14 -64 20 -57 21 -66 8 -112
l-14 -50 5 67 c5 57 3 70 -16 97 -17 24 -21 39 -16 62 6 26 11 30 31 26 22 -4
23 -3 10 12 -8 10 -12 28 -9 47 3 20 -1 35 -11 43 -14 12 -16 10 -16 -15 0
-16 -4 -35 -9 -43 -11 -17 -34 -4 -27 16 3 8 2 11 -3 8 -6 -3 -14 3 -20 12 -6
10 -11 15 -11 11 0 -4 -13 -3 -30 2 -56 16 -36 -33 45 -112 17 -16 30 -36 30
-46 1 -9 7 -16 13 -14 10 2 10 -3 3 -17 -14 -26 -33 -109 -33 -151 0 -19 -3
-29 -5 -22 -9 25 -23 11 -23 -24 0 -22 -4 -33 -11 -29 -6 4 -9 30 -6 66 3 38
1 64 -6 72 -7 7 -21 29 -31 49 -17 34 -18 40 -3 69 15 31 15 31 27 10 6 -13 9
-28 7 -35 -3 -7 1 -23 9 -37 7 -13 13 -42 14 -63 0 -50 9 -41 23 21 18 87 15
93 -75 197 -24 27 -38 53 -38 70 0 39 -24 27 -30 -15 -5 -30 -7 -31 -13 -13
-9 27 -42 37 -58 17 -10 -11 -14 -11 -20 -1 -4 7 -11 10 -14 6 -4 -3 14 -45
39 -93 25 -48 43 -91 40 -96 -3 -5 -1 -16 4 -26 8 -14 11 -13 17 7 l8 24 14
-28 c26 -50 53 -138 53 -174 l0 -35 -21 27 c-15 19 -21 41 -21 78 l1 52 -18
-27 c-10 -15 -21 -24 -24 -20 -4 3 -8 -14 -9 -38 l-1 -44 -5 40 c-3 33 -6 37
-13 20 -7 -15 -8 -11 -4 16 3 19 2 39 -2 43 -4 4 -15 30 -24 59 -13 41 -18 48
-24 33 -5 -11 -3 -21 5 -26 10 -6 9 -9 -1 -12 -11 -4 -11 -12 -3 -39 18 -58 3
-65 -17 -8 -10 30 -23 62 -29 72 -7 12 -7 24 1 38 14 27 3 37 -18 16 -12 -12
-19 -41 -22 -94 l-6 -78 -14 42 c-10 30 -18 40 -29 35 -11 -4 -13 -1 -7 7 11
19 -16 33 -35 18 -8 -6 -5 0 8 14 12 14 22 29 22 34 0 5 10 20 23 34 l22 26
-23 -20 c-23 -19 -24 -19 -38 -1 -12 17 -16 17 -30 5 -16 -13 -16 -12 -5 9 10
20 9 31 -13 74 -27 54 -33 115 -16 148 11 21 23 20 130 -6 83 -21 95 -15 15 7
-38 11 -73 26 -78 32 -4 7 -5 29 -2 49 3 20 2 44 -1 53 -6 14 -8 14 -25 -1
-18 -16 -19 -16 -20 7 0 13 -3 18 -6 11 -2 -6 -9 -10 -14 -7 -5 4 -6 -9 -3
-27 5 -26 3 -30 -6 -18 -9 12 -10 8 -6 -20 6 -32 5 -33 -8 -15 -9 11 -16 25
-16 32 0 6 -5 15 -12 19 -7 4 -8 3 -4 -5 4 -6 0 -14 -8 -17 -9 -3 -16 -13 -16
-21 0 -8 -4 -11 -10 -8 -14 9 -12 52 4 83 20 37 80 93 147 135 83 53 132 115
206 263 67 135 82 152 109 117 12 -17 13 -17 14 3 0 39 -60 47 -84 12z m80
-519 c8 -13 -21 1 -51 26 -19 15 -18 15 12 1 17 -9 35 -21 39 -27z m323 -51
c20 -23 21 -26 5 -24 -11 2 -19 8 -19 14 0 6 -3 14 -7 18 -5 4 -8 12 -8 17 0
6 1 8 3 6 1 -2 13 -16 26 -31z m108 -115 c-2 -14 -1 -40 3 -59 4 -19 7 -34 6
-34 -1 0 -12 13 -24 29 -18 25 -19 33 -10 64 12 40 33 39 25 0z m-958 -138
c11 -25 35 -60 52 -78 48 -48 82 -130 83 -204 1 -48 -2 -63 -12 -63 -12 0 -13
10 -8 50 6 43 3 57 -24 110 -17 33 -33 60 -35 60 -3 0 4 -18 15 -40 13 -25 20
-57 19 -87 l-2 -48 -6 40 c-4 22 -15 54 -24 72 -9 18 -17 39 -17 48 0 9 -4 14
-9 10 -5 -3 -13 0 -17 6 -4 8 -3 9 4 5 15 -9 15 -10 -6 47 -10 26 -21 45 -24
41 -10 -10 -28 67 -27 116 l1 45 9 -42 c4 -24 17 -63 28 -88z m35 18 c5 -15 3
-23 -4 -23 -11 0 -50 81 -50 103 0 15 45 -52 54 -80z m888 15 c-2 -11 -8 -16
-13 -11 -5 5 -6 19 -2 32 4 15 8 19 13 11 4 -7 5 -21 2 -32z m-462 -140 c0
-18 -16 -6 -33 25 l-19 32 26 -24 c14 -14 26 -28 26 -33z m44 3 c4 -5 2 -20
-3 -33 -8 -17 -10 -19 -10 -5 -1 15 -5 16 -21 7 -24 -13 -26 -3 -3 22 18 20
29 23 37 9z m255 -7 c15 -9 33 -25 40 -36 7 -12 8 -17 2 -13 -16 9 -13 -6 6
-29 9 -12 -7 3 -35 32 -65 66 -69 79 -13 46z m-564 -10 c-36 -28 -61 -36 -30
-10 17 14 35 26 40 26 6 -1 1 -8 -10 -16z m585 -101 c-1 -12 -6 -9 -17 12 -8
17 -25 41 -37 55 -11 14 -4 9 17 -12 20 -20 37 -45 37 -55z m-440 -80 c0 -7
-4 -13 -9 -13 -11 0 -28 88 -22 115 4 18 29 -68 31 -102z m423 17 c0 -20 -4
-44 -9 -53 -6 -10 -9 8 -9 53 0 45 3 63 9 53 5 -9 9 -33 9 -53z m86 36 c-3 -3
-11 5 -18 17 -13 21 -12 21 5 5 10 -10 16 -20 13 -22z m50 -6 c0 -10 -3 -8 -9
5 -12 27 -12 43 0 25 5 -8 9 -22 9 -30z m-187 -32 c-6 -6 -7 0 -4 19 5 21 7
23 10 9 2 -10 0 -22 -6 -28z m-485 -15 c-3 -10 -5 -2 -5 17 0 19 2 27 5 18 2
-10 2 -26 0 -35z m57 -82 c-7 -7 -33 33 -34 49 0 8 8 2 19 -15 10 -16 17 -32
15 -34z m456 -6 c14 -8 20 -14 14 -15 -22 0 -64 42 -64 63 1 19 2 18 13 -6 7
-16 23 -35 37 -42z m214 50 c3 -8 1 -15 -3 -15 -5 0 -11 7 -15 15 -3 8 -1 15
3 15 5 0 11 -7 15 -15z m-316 -40 c-3 -24 -7 -48 -11 -52 -4 -4 -6 15 -3 43 5
56 4 54 12 54 3 0 4 -20 2 -45z m-424 19 c3 -8 2 -12 -4 -9 -6 3 -10 10 -10
16 0 14 7 11 14 -7z m-89 -24 c-4 -12 -9 -19 -12 -17 -3 3 -2 15 2 27 4 12 9
19 12 17 3 -3 2 -15 -2 -27z m475 -25 c-16 -20 -44 -19 -61 2 -13 15 -12 15 9
4 29 -15 52 -8 53 16 0 11 3 13 6 5 3 -7 -1 -19 -7 -27z m499 -130 c0 -5 -18
24 -39 65 -21 41 -39 80 -39 85 0 6 18 -24 39 -65 21 -41 39 -79 39 -85z
m-968 107 c-13 -2 -27 0 -32 5 -6 6 3 7 23 4 28 -4 29 -6 9 -9z m116 -34 c-3
-8 -6 -5 -6 6 -1 11 2 17 5 13 3 -3 4 -12 1 -19z m593 -48 c0 -15 -5 -12 -26
11 -19 22 -19 22 4 10 12 -6 22 -16 22 -21z m-215 -50 c-10 -11 -20 -18 -22
-16 -6 5 30 44 36 39 2 -1 -4 -12 -14 -23z m172 4 c-3 -3 -12 -4 -19 -1 -8 3
-5 6 6 6 11 1 17 -2 13 -5z m333 -49 c0 -5 -5 -3 -10 5 -5 8 -10 20 -10 25 0
6 5 3 10 -5 5 -8 10 -19 10 -25z m31 -62 c11 -25 18 -53 17 -60 -2 -8 -13 13
-25 47 -26 71 -21 80 8 13z m36 -35 c-3 -8 -6 -5 -6 6 -1 11 2 17 5 13 3 -3 4
-12 1 -19z m813 -14 c19 -3 44 -13 55 -21 18 -13 15 -14 -28 -7 -38 5 -47 4
-45 -7 6 -29 -26 -13 -39 19 -13 31 -12 33 4 29 10 -3 34 -9 53 -13z m40 -59
c0 -13 -88 -44 -120 -44 -31 1 -29 2 13 9 27 5 58 15 70 24 23 16 37 20 37 11z
m-1047 -115 c4 -15 0 -20 -15 -20 -17 0 -18 -3 -8 -15 10 -12 10 -15 -4 -15
-11 0 -16 9 -16 28 0 16 3 32 7 35 13 13 31 7 36 -13z m106 -41 c24 -45 23
-63 -1 -27 -17 25 -32 68 -25 68 3 0 15 -19 26 -41z m-1 -84 c-3 -3 -9 2 -12
12 -6 14 -5 15 5 6 7 -7 10 -15 7 -18z m902 -70 c0 -5 -5 -3 -10 5 -5 8 -10
20 -10 25 0 6 5 3 10 -5 5 -8 10 -19 10 -25z m-475 -8 c19 -4 19 -5 -1 -6 -11
0 -29 9 -40 22 -19 22 -19 22 1 6 11 -10 29 -19 40 -22z m-254 -14 c13 -16 12
-17 -3 -4 -10 7 -18 15 -18 17 0 8 8 3 21 -13z m329 -12 c0 -12 -74 -41 -105
-41 -13 0 -27 -5 -31 -12 -4 -6 -3 -9 2 -6 5 3 19 -8 32 -23 17 -21 20 -29 9
-29 -8 0 -25 15 -38 34 -13 19 -37 42 -54 51 -16 8 -21 13 -10 9 51 -16 121
-14 155 5 19 10 36 19 38 20 1 1 2 -3 2 -8z m17 -170 c0 -9 5 -44 13 -79 7
-34 10 -65 7 -68 -3 -4 5 -23 18 -43 36 -51 31 -62 -5 -13 -17 23 -29 45 -28
49 1 5 -4 27 -10 49 -7 23 -10 49 -6 57 3 8 -4 33 -15 56 -27 52 -26 60 3 32
14 -13 24 -31 23 -40z m-216 2 c13 -16 12 -17 -3 -4 -10 7 -18 15 -18 17 0 8
8 3 21 -13z m152 -10 c-7 -2 -19 -2 -25 0 -7 3 -2 5 12 5 14 0 19 -2 13 -5z
m-53 -78 c19 -19 32 -35 29 -35 -3 0 -20 16 -39 35 -19 19 -32 35 -29 35 3 0
20 -16 39 -35z m53 28 c-7 -2 -19 -2 -25 0 -7 3 -2 5 12 5 14 0 19 -2 13 -5z
m161 -100 c3 -11 13 -40 24 -64 28 -64 54 -154 50 -174 -3 -20 -78 183 -83
227 -1 14 -6 32 -10 40 -6 9 -5 10 4 2 6 -6 13 -20 15 -31z m-154 -4 c15 -28
5 -23 -15 7 -9 15 -12 23 -6 20 6 -4 16 -16 21 -27z m15 -89 c36 -49 63 -142
37 -126 -7 4 -12 15 -12 25 0 9 -13 38 -29 63 -43 68 -53 88 -42 88 5 0 26
-23 46 -50z m-403 -65 c8 -14 2 -12 -21 9 -17 17 -31 34 -31 39 0 14 39 -23
52 -48z m-87 15 c10 -11 16 -20 13 -20 -3 0 -13 9 -23 20 -10 11 -16 20 -13
20 3 0 13 -9 23 -20z m72 -93 c3 -7 -3 -4 -14 6 -11 9 -23 17 -28 17 -11 0
115 -141 210 -234 44 -44 64 -68 45 -55 -19 13 -52 42 -75 64 -71 71 -245 269
-245 279 0 8 99 -63 107 -77z m66 -157 c17 -24 42 -55 56 -68 l26 -23 -29 17
c-16 10 -37 32 -47 48 -10 16 -59 75 -110 130 l-92 101 82 -80 c46 -44 97
-100 114 -125z m73 168 l29 -33 -32 29 c-18 17 -33 31 -33 33 0 8 8 1 36 -29z
m-106 -3 c14 -19 14 -19 -2 -6 -10 7 -18 18 -18 24 0 6 1 8 3 6 1 -2 9 -13 17
-24z m60 -57 c29 -38 30 -40 6 -18 -25 23 -52 60 -43 60 2 0 19 -19 37 -42z
m90 -23 c13 -14 21 -25 18 -25 -2 0 -15 11 -28 25 -13 14 -21 25 -18 25 2 0
15 -11 28 -25z m-69 -32 c13 -16 12 -17 -3 -4 -10 7 -18 15 -18 17 0 8 8 3 21
-13z m239 -220 c0 -1 -4 -3 -8 -3 -13 0 -92 70 -92 81 0 6 23 -9 50 -32 28
-23 50 -44 50 -46z m-240 32 c24 -29 24 -29 2 -10 -13 11 -28 29 -34 40 -11
21 -8 18 32 -30z m51 -22 c13 -16 12 -17 -3 -4 -10 7 -18 15 -18 17 0 8 8 3
21 -13z m-150 -45 c8 -15 8 -18 0 -14 -6 4 -16 16 -22 28 -8 15 -8 18 0 14 6
-4 16 -16 22 -28z m79 -73 c32 -34 21 -37 -14 -3 -16 16 -24 28 -19 28 5 0 20
-11 33 -25z m-191 -119 c-116 -99 -149 -125 -140 -108 13 24 118 112 134 112
5 0 8 -2 6 -4z m-145 -51 c-9 -14 -19 -23 -22 -20 -5 4 26 45 35 45 2 0 -4
-11 -13 -25z m101 -44 c-37 -34 -127 -101 -124 -92 4 10 119 101 129 101 2 0
0 -4 -5 -9z"/>
<path d="M4825 3080 c10 -11 20 -20 23 -20 3 0 -3 9 -13 20 -10 11 -20 20 -23
20 -3 0 3 -9 13 -20z"/>
<path d="M4145 4039 c-39 -15 -95 -57 -95 -71 0 -6 10 -2 23 9 68 63 159 71
250 22 75 -39 83 -33 11 10 -61 36 -138 48 -189 30z"/>
<path d="M4185 4000 c-32 -7 -121 -56 -131 -71 -3 -5 15 -6 43 -2 26 4 100 7
165 8 64 0 115 1 114 2 -1 1 -27 15 -57 31 -65 35 -94 42 -134 32z m35 -27
c-8 -2 -33 -11 -55 -19 l-40 -15 25 20 c14 12 39 20 55 20 17 0 23 -3 15 -6z"/>
<path d="M5262 3936 c-1 -26 -9 -75 -18 -108 -8 -33 -13 -62 -11 -65 11 -10
38 127 35 172 l-4 50 -2 -49z"/>
<path d="M4596 3916 c8 -54 47 -128 86 -165 18 -17 37 -31 41 -31 5 0 -4 11
-20 24 -15 13 -40 50 -54 82 -15 33 -34 75 -43 94 l-16 35 6 -39z"/>
<path d="M4022 3915 c0 -16 2 -22 5 -12 2 9 2 23 0 30 -3 6 -5 -1 -5 -18z"/>
<path d="M3542 3905 c0 -16 2 -22 5 -12 2 9 2 23 0 30 -3 6 -5 -1 -5 -18z"/>
<path d="M4958 3925 c-3 -3 -41 -10 -84 -15 l-79 -9 80 4 c75 3 162 23 109 24
-11 1 -23 -1 -26 -4z"/>
<path d="M3266 3833 c-16 -177 -28 -285 -41 -363 -18 -113 -27 -231 -15 -205
18 41 79 620 66 632 -2 3 -7 -26 -10 -64z"/>
<path d="M4215 3880 c-16 -4 -50 -8 -75 -9 -25 -1 -52 -6 -60 -11 -19 -12 -13
-12 90 1 46 5 91 14 99 19 13 8 13 9 -4 9 -11 -1 -33 -5 -50 -9z"/>
<path d="M3542 3838 c-1 -18 -5 -42 -8 -53 -4 -15 -3 -16 4 -5 14 22 24 90 15
90 -5 0 -10 -15 -11 -32z"/>
<path d="M4670 3841 c0 -5 9 -19 20 -32 l21 -24 -16 33 c-15 31 -25 41 -25 23z"/>
<path d="M5400 3844 c0 -21 21 -84 30 -89 5 -3 3 15 -5 41 -13 44 -25 67 -25
48z"/>
<path d="M4013 3710 c0 -25 2 -35 4 -22 2 12 2 32 0 45 -2 12 -4 2 -4 -23z"/>
<path d="M5190 3720 c-6 -12 -16 -47 -22 -78 -5 -31 -12 -70 -15 -86 -4 -18
-2 -27 4 -23 6 4 5 -20 -3 -60 -8 -37 -13 -71 -11 -77 5 -15 38 120 43 174 3
25 9 60 13 78 6 19 6 30 0 27 -12 -8 -12 7 1 39 11 31 5 34 -10 6z"/>
<path d="M5466 3635 c3 -38 10 -77 16 -85 13 -21 3 97 -12 130 -8 20 -9 10 -4
-45z"/>
<path d="M4060 3680 c37 -12 189 -12 170 0 -8 5 -55 9 -105 9 -60 -1 -82 -4
-65 -9z"/>
<path d="M5270 3633 c-6 -32 -20 -88 -30 -125 -10 -38 -14 -68 -9 -68 5 0 9 8
9 18 0 9 5 24 11 32 16 24 0 -71 -18 -98 -32 -51 -59 -321 -33 -337 6 -3 10
-26 10 -51 0 -25 7 -61 16 -82 8 -20 16 -51 16 -68 0 -17 6 -69 13 -115 l13
-84 0 154 c0 148 -1 155 -29 215 -34 73 -36 112 -8 221 11 44 17 90 14 103 -3
12 2 36 11 53 14 28 40 276 30 287 -3 2 -9 -23 -16 -55z"/>
<path d="M4013 3615 c0 -27 2 -38 4 -22 2 15 2 37 0 50 -2 12 -4 0 -4 -28z"/>
<path d="M3961 3564 c0 -11 3 -14 6 -6 3 7 2 16 -1 19 -3 4 -6 -2 -5 -13z"/>
<path d="M3721 3563 c-1 -6 -4 -20 -7 -30 -5 -15 -4 -16 5 -3 9 12 10 7 5 -22
-3 -20 -2 -51 2 -70 l8 -33 7 42 c5 28 3 57 -6 85 -7 24 -13 38 -14 31z"/>
<path d="M3877 3522 c-21 -23 -21 -36 -2 -52 18 -15 20 -46 3 -53 -10 -4 -9
-8 2 -16 13 -10 13 -12 0 -20 -8 -5 -18 -7 -22 -5 -4 3 -8 -2 -8 -10 0 -9 4
-16 9 -16 5 0 12 -19 16 -42 l8 -43 8 50 c7 44 10 225 4 225 -1 0 -9 -8 -18
-18z"/>
<path d="M5099 3488 c-1 -18 0 -61 1 -94 1 -36 -3 -65 -9 -68 -20 -13 -12 -27
9 -16 11 6 20 17 20 25 0 8 6 15 13 15 9 0 9 2 0 8 -8 5 -9 19 -4 45 5 20 5
35 1 32 -4 -3 -5 16 -2 40 4 37 2 45 -12 45 -11 0 -16 -10 -17 -32z"/>
<path d="M4305 3481 c16 -31 35 -49 35 -33 0 5 -7 15 -15 22 -8 7 -15 19 -15
26 0 8 -5 14 -10 14 -6 0 -4 -13 5 -29z"/>
<path d="M3754 3393 c1 -40 4 -64 8 -55 6 15 7 15 7 -2 1 -11 3 -17 6 -14 3 2
-1 36 -8 74 l-13 69 0 -72z"/>
<path d="M3821 3434 c0 -11 3 -14 6 -6 3 7 2 16 -1 19 -3 4 -6 -2 -5 -13z"/>
<path d="M3951 3433 c0 -12 -4 -30 -7 -40 -5 -15 -4 -15 5 -3 8 11 10 1 8 -41
-1 -31 -6 -55 -10 -52 -4 3 -8 -13 -7 -34 0 -21 -2 -52 -6 -70 -4 -22 0 -46
14 -75 11 -24 26 -61 32 -82 17 -53 50 -126 57 -126 3 0 3 7 -1 15 -18 48 -66
327 -67 393 -1 74 -15 165 -18 115z m8 -253 c11 -24 11 -24 -3 -6 -9 11 -16
24 -16 30 0 12 5 7 19 -24z"/>
<path d="M3526 3391 c-11 -17 -27 -66 -19 -56 12 13 34 65 28 65 -2 0 -6 -4
-9 -9z"/>
<path d="M3742 3380 c0 -14 2 -19 5 -12 2 6 2 18 0 25 -3 6 -5 1 -5 -13z"/>
<path d="M3923 3325 c0 -22 2 -30 4 -17 2 12 2 30 0 40 -3 9 -5 -1 -4 -23z"/>
<path d="M3396 3288 c-9 -88 -15 -250 -9 -244 6 6 23 289 18 294 -2 2 -6 -20
-9 -50z"/>
<path d="M5287 3263 c-2 -5 -1 -34 2 -65 5 -45 9 -56 19 -49 11 7 12 19 2 65
-11 55 -15 63 -23 49z"/>
<path d="M4360 3245 c0 -5 5 -17 10 -25 5 -8 10 -10 10 -5 0 6 -5 17 -10 25
-5 8 -10 11 -10 5z"/>
<path d="M5400 3230 c0 -11 4 -20 9 -20 5 0 7 9 4 20 -3 11 -7 20 -9 20 -2 0
-4 -9 -4 -20z"/>
<path d="M5255 3220 c-19 -31 -23 -117 -7 -165 15 -45 17 -48 23 -25 4 14 7
19 8 13 1 -7 6 -13 12 -13 6 0 8 8 6 18 -3 9 -9 35 -13 57 l-8 40 -7 -45 c-4
-27 -5 -9 -2 43 5 83 2 100 -12 77z"/>
<path d="M2280 3194 c-25 -14 -79 -61 -120 -104 -65 -69 -82 -81 -132 -95 -59
-17 -79 -38 -50 -54 15 -9 15 -11 -5 -26 -44 -31 -19 -89 27 -65 26 14 40 42
40 79 0 17 5 31 11 31 6 0 9 -19 8 -48 -1 -26 1 -54 5 -60 14 -22 -4 -70 -27
-75 l-22 -4 22 -2 c17 -1 28 9 43 38 18 36 24 40 67 46 27 3 75 10 109 15 98
16 93 19 78 -52 -17 -89 -53 -309 -63 -398 -5 -41 -16 -113 -24 -160 -8 -47
-25 -150 -36 -230 -12 -80 -25 -167 -31 -195 -5 -27 -12 -67 -15 -87 -3 -21
-10 -38 -15 -38 -14 0 -12 41 5 145 9 50 20 119 25 155 6 36 17 115 26 175 10
61 23 122 30 137 8 15 14 59 14 101 0 41 5 98 10 127 10 54 6 79 -6 44 -16
-44 -68 -105 -103 -123 l-37 -19 8 -54 c4 -29 11 -81 17 -116 5 -35 7 -72 4
-83 -3 -11 0 -31 7 -43 10 -19 9 -29 -4 -55 -9 -17 -15 -35 -13 -39 3 -4 1
-56 -4 -117 -8 -118 -24 -168 -70 -226 -16 -20 -29 -39 -29 -41 0 -3 22 0 48
5 39 8 55 7 80 -6 48 -24 145 -5 190 37 51 47 62 76 62 165 0 88 20 158 62
214 14 18 30 58 37 90 8 39 23 70 42 90 l29 32 -25 -45 c-42 -76 -33 -139 31
-210 l38 -42 -35 14 c-19 8 -43 28 -54 46 -11 17 -23 31 -26 32 -3 0 -19 -23
-34 -52 -25 -45 -29 -67 -35 -165 -5 -106 -8 -114 -36 -149 -62 -78 -80 -82
-301 -72 -43 2 -57 -1 -74 -19 -40 -40 0 -72 48 -38 20 14 21 13 16 -5 -3 -11
0 -26 6 -34 7 -8 10 -29 7 -48 -5 -27 -1 -39 23 -66 25 -29 32 -32 49 -23 31
17 58 60 76 122 9 31 26 65 38 75 l20 19 -21 -40 c-11 -22 -21 -49 -21 -60 0
-11 -12 -40 -25 -64 -14 -24 -23 -46 -20 -49 3 -3 -7 -13 -21 -23 l-27 -17
111 -111 c105 -105 113 -111 154 -112 32 -2 36 -3 14 -6 l-28 -5 41 -38 c139
-130 452 -310 689 -396 280 -102 495 -140 824 -143 234 -3 347 5 355 24 2 7
-10 33 -27 57 -31 42 -93 168 -87 175 4 4 57 -102 57 -114 0 -4 16 -28 35 -52
34 -42 35 -43 43 -21 7 19 11 20 17 9 7 -11 11 -8 15 11 4 14 12 24 19 22 7
-1 11 3 10 10 -1 7 -1 20 0 28 1 13 2 13 12 0 8 -12 10 -9 6 12 -5 32 7 37 22
11 8 -14 10 -15 10 -3 0 8 -6 24 -14 34 -25 33 -17 55 8 24 65 -80 71 35 9
160 -10 19 -57 79 -107 133 -49 55 -111 128 -138 162 -49 64 -200 357 -236
460 -20 55 -20 57 -2 57 27 0 82 21 76 30 -5 9 43 32 54 25 5 -2 11 -17 14
-32 3 -16 13 -37 22 -48 16 -20 16 -20 6 2 -17 34 -13 49 14 61 14 6 25 17 25
23 0 7 -9 9 -25 5 -14 -4 -25 -3 -25 2 0 14 -104 42 -143 38 -36 -3 -37 -3
-21 15 20 22 42 26 24 4 -15 -18 -7 -19 20 -3 15 10 29 10 65 0 55 -15 112
-16 120 -2 3 6 -3 10 -14 10 -12 0 -21 5 -21 11 0 8 -24 10 -77 7 -89 -6 -106
4 -151 84 -24 43 -30 48 -62 48 -19 -1 -53 -8 -75 -16 -56 -22 -144 -45 -180
-49 -66 -5 -131 -18 -143 -28 -6 -5 -35 -7 -63 -5 -88 9 -185 97 -192 175 -2
24 -12 53 -24 65 -11 13 -27 34 -36 48 -26 38 -20 1 7 -47 13 -23 27 -60 31
-82 6 -37 46 -91 66 -91 5 0 15 -13 24 -30 16 -31 7 -41 -15 -15 -16 20 -31
19 -23 0 10 -27 79 -55 135 -55 38 0 49 -3 38 -10 -26 -17 -83 -11 -137 14
-41 19 -57 34 -74 68 -12 24 -25 45 -29 48 -15 10 -83 186 -84 217 -1 17 -4
29 -8 26 -5 -2 -8 3 -8 11 0 21 -6 20 -47 -5 -18 -12 -40 -18 -49 -15 -8 3
-33 -3 -54 -14 -22 -11 -50 -20 -62 -20 -13 0 26 22 86 48 121 53 141 73 141
136 0 37 2 41 23 39 22 -3 30 11 12 22 -5 3 -9 23 -9 43 1 21 3 28 6 17 9 -36
22 -40 48 -15 14 13 23 30 21 36 -3 7 4 14 16 16 14 2 24 13 29 32 8 27 7 28
-26 24 -40 -5 -37 8 5 17 40 9 48 25 13 26 l-28 0 25 10 c24 10 24 11 5 21
-24 14 -35 28 -34 48 0 9 5 5 13 -9 16 -29 38 -40 81 -40 25 0 27 2 10 9 -11
4 -31 20 -44 34 l-24 26 26 0 c14 0 33 7 41 16 17 17 22 90 7 113 -14 22 -45
-43 -32 -68 8 -15 5 -21 -15 -32 -23 -12 -28 -11 -39 5 -13 17 -15 16 -34 -15
-35 -57 -53 -126 -49 -185 2 -42 0 -51 -8 -39 -6 8 -18 15 -25 15 -24 0 -57
-29 -62 -53 -4 -19 -4 -18 -6 5 -1 23 6 31 38 48 34 17 41 26 50 70 18 83 15
88 -26 49 l-36 -34 24 35 c13 19 24 37 24 41 0 3 17 23 37 45 21 21 40 53 44
69 3 17 11 36 17 43 17 21 1 24 -33 7 -18 -9 -33 -15 -35 -13 -2 2 21 16 51
32 30 16 53 31 50 33 -2 3 -18 -3 -35 -11 -25 -13 -38 -14 -73 -5 -24 6 -53
13 -65 16 -47 11 -12 33 54 33 24 0 38 8 57 33 44 57 48 79 21 128 -20 39 -54
64 -56 42 -1 -8 -2 -19 -14 -80 -7 -41 -24 -43 -31 -4 -11 52 -39 57 -166 33
-284 -54 -386 -72 -404 -72 -44 -1 -47 -14 -15 -76 56 -106 72 -182 81 -374 7
-154 11 -183 33 -238 29 -71 20 -73 -19 -5 -26 42 -28 55 -35 222 -12 275 -46
393 -128 435 -23 12 -44 11 -159 -9 -73 -13 -146 -26 -162 -30 -17 -4 -30 -2
-30 3 0 20 170 170 200 177 46 10 85 -11 126 -66 39 -53 44 -57 44 -34 0 23
-71 96 -107 112 -44 18 -51 17 -103 -13z m926 -74 c1 -27 -1 -50 -6 -50 -18 0
-27 61 -14 95 10 25 17 10 20 -45z m-104 -22 c3 -29 7 -34 37 -38 27 -4 31 -7
20 -16 -9 -8 -53 -10 -134 -6 -165 7 -358 7 -430 -1 -51 -5 -55 -4 -30 5 37
14 446 85 497 87 34 1 37 -1 40 -31z m-62 -89 c-19 -4 -69 -13 -110 -19 -41
-5 -120 -16 -175 -25 -55 -8 -109 -15 -120 -15 -17 0 -18 2 -4 15 20 21 242
48 414 52 29 1 29 1 -5 -8z m-655 -14 c-39 -16 -164 -27 -190 -15 -15 7 -8 9
30 10 28 1 61 6 75 10 14 4 45 8 70 8 l45 0 -30 -13z m53 -32 c-10 -2 -28 -2
-40 0 -13 2 -5 4 17 4 22 1 32 -1 23 -4z m73 -22 c-13 -24 -80 -36 -149 -27
-26 3 -91 -1 -146 -9 -54 -8 -102 -12 -107 -9 -14 8 -11 51 4 57 6 2 71 -2
142 -10 179 -19 226 -18 245 6 19 24 25 19 11 -8z m634 -41 c-3 -5 -11 -10
-16 -10 -6 0 -7 5 -4 10 3 6 11 10 16 10 6 0 7 -4 4 -10z m-49 -23 c-78 -49
-182 -135 -236 -195 -35 -39 -67 -69 -72 -66 -4 3 -8 1 -8 -5 0 -5 10 -12 23
-14 19 -4 18 -4 -6 -6 l-28 -1 7 66 c4 37 15 88 25 113 l18 46 -4 -45 c-2 -25
-9 -65 -14 -90 -6 -25 -10 -48 -11 -51 0 -3 42 35 93 86 79 78 206 176 226
174 3 0 -3 -6 -13 -12z m-172 -246 c-3 -40 -9 -70 -11 -67 -3 3 -2 37 2 76 4
39 9 69 12 67 2 -3 1 -37 -3 -76z m-220 -76 c-9 -37 -24 -20 -24 28 0 40 1 41
15 20 10 -14 13 -32 9 -48z m325 -42 c0 -5 -4 -17 -9 -28 -8 -18 -9 -17 -9 8
-1 15 4 27 9 27 6 0 10 -3 9 -7z m-245 -68 c-20 -48 -17 -57 6 -15 14 26 19
30 20 15 0 -30 -19 -93 -31 -101 -7 -4 -9 1 -4 15 4 12 2 21 -4 21 -14 0 -14
55 -1 81 18 33 30 21 14 -16z m296 -35 c0 -35 -20 -50 -100 -75 -30 -10 -60
-22 -67 -27 -6 -5 -28 -11 -48 -13 -19 -2 -47 -10 -60 -19 -13 -9 -32 -16 -42
-16 -29 0 6 -19 37 -21 18 0 12 -4 -21 -15 -31 -9 -60 -28 -88 -59 -23 -25
-44 -45 -47 -45 -3 0 -4 26 -2 57 3 65 -5 58 135 115 47 19 84 40 86 49 3 9
20 19 38 23 19 4 63 22 99 40 36 18 68 34 73 35 4 0 7 -12 7 -29z m-391 -116
c2 -2 -7 -4 -22 -4 -36 0 -52 -52 -42 -134 4 -34 7 -70 6 -81 0 -24 26 -55 47
-55 16 0 52 28 52 39 0 4 -9 7 -20 8 -11 1 -20 -3 -20 -8 0 -6 5 -7 10 -4 6 3
10 4 10 1 0 -14 -20 -14 -34 0 -28 27 -19 59 29 103 42 39 48 41 102 39 36 -1
45 -3 26 -5 -38 -5 -40 -9 -13 -31 12 -10 24 -39 30 -70 5 -29 14 -61 20 -72
5 -10 10 -27 10 -37 0 -10 7 -31 15 -46 8 -15 16 -36 17 -45 2 -9 14 -27 27
-39 26 -25 18 -29 -24 -13 -17 7 -25 15 -22 24 3 8 0 20 -8 26 -8 6 -19 28
-25 48 -27 87 -88 212 -104 212 -28 0 -76 -35 -75 -55 0 -11 3 -15 5 -8 3 7
12 9 20 6 10 -4 12 0 7 13 -13 34 17 4 32 -33 20 -46 19 -48 -11 -61 -14 -7
-23 -8 -19 -2 4 6 -6 7 -25 4 -64 -13 -108 77 -97 196 7 82 19 101 60 93 17
-3 34 -7 36 -9z m404 -113 c-2 -2 -3 1 -3 7 0 7 -5 12 -10 12 -7 0 -7 -7 0
-21 16 -28 3 -97 -20 -109 -10 -6 -26 -7 -36 -3 -15 6 -15 7 4 14 17 6 22 17
22 43 0 19 5 47 11 63 12 28 13 32 19 88 2 20 5 10 10 -30 3 -33 5 -62 3 -64z
m-77 43 c1 -40 -41 -58 -76 -33 -11 8 -6 9 22 4 20 -3 39 -1 42 4 7 11 -77 26
-93 16 -6 -3 -11 -2 -11 4 0 6 17 13 38 16 20 4 42 8 47 10 19 6 30 -2 31 -21z
m764 -234 c0 -5 -11 -10 -24 -10 -13 0 -31 -3 -40 -6 -9 -3 -16 -1 -16 4 0 9
17 14 68 21 6 0 12 -3 12 -9z m-738 -25 c-2 -11 -10 -27 -18 -35 -13 -13 -14
-12 -6 10 7 19 5 28 -7 38 -14 11 -13 12 9 10 19 -2 24 -8 22 -23z m-215 -37
c6 -7 13 -23 16 -36 5 -20 3 -22 -11 -11 -41 31 -51 42 -46 50 8 13 30 11 41
-3z m497 -100 c-4 -7 -9 -21 -9 -30 -1 -10 -4 -19 -6 -21 -2 -1 -15 -11 -27
-22 l-24 -20 18 45 c16 42 42 75 52 66 2 -3 0 -11 -4 -18z m142 -65 c-12 -67
-14 -69 -52 -69 -32 0 -34 1 -18 13 10 7 21 13 26 13 4 0 15 18 24 40 20 50
28 51 20 3z m-113 -22 c-10 -11 -31 -22 -48 -25 -28 -6 -28 -5 5 8 19 8 31 15
25 15 -5 1 -3 6 5 11 25 16 32 11 13 -9z m-393 -21 c8 -5 11 -10 5 -10 -5 0
-17 5 -25 10 -8 5 -10 10 -5 10 6 0 17 -5 25 -10z m941 -10 l24 -21 -35 17
c-43 21 -47 24 -28 24 9 0 26 -9 39 -20z m-606 -40 c-10 -11 -20 -18 -23 -15
-7 6 18 35 31 35 5 0 2 -9 -8 -20z m705 -95 c6 -38 14 -88 17 -110 3 -22 25
-107 50 -190 72 -236 84 -283 68 -261 -14 18 -46 112 -51 146 -1 8 -9 35 -18
59 -9 24 -16 52 -16 63 0 10 -9 44 -20 76 -29 81 -50 177 -55 246 -5 78 10 60
25 -29z m-593 40 c-32 -19 -72 -42 -90 -50 l-32 -16 30 26 c35 31 114 74 135
75 8 0 -11 -16 -43 -35z m-136 -30 c-32 -37 -39 -34 -20 9 10 22 36 38 48 29
2 -1 -10 -18 -28 -38z m109 -23 c-34 -30 -45 -47 -50 -83 l-7 -44 -2 39 c-1
33 5 45 43 82 24 24 47 44 51 44 4 0 -12 -17 -35 -38z m525 -30 c-7 -7 -34 18
-47 42 -8 16 -3 14 21 -8 17 -16 29 -32 26 -34z m-108 32 c-3 -3 -12 -4 -19
-1 -8 3 -5 6 6 6 11 1 17 -2 13 -5z m-393 -51 c-3 -27 -11 -52 -16 -58 -8 -9
-3 59 8 93 9 30 15 8 8 -35z m-132 15 c-13 -17 -9 -275 5 -308 6 -14 18 -32
27 -39 22 -19 21 -53 -1 -49 -12 2 -23 23 -35 67 -19 72 -39 259 -31 293 5 20
29 48 41 48 3 0 0 -6 -6 -12z m-582 -45 c-18 -21 -44 -43 -59 -50 l-26 -12 29
-1 c16 0 49 11 73 25 23 14 43 21 43 15 0 -5 9 -10 19 -10 11 0 23 -4 26 -10
3 -5 0 -8 -7 -5 -7 3 -26 1 -42 -3 -29 -8 -29 -8 44 -55 40 -26 79 -47 87 -47
18 0 16 -7 -7 -30 -11 -11 -20 -16 -20 -11 0 5 -15 14 -32 21 -18 7 -55 29
-81 47 -31 22 -58 33 -75 32 -15 -1 -41 1 -58 5 -30 8 -31 9 -18 35 23 45 80
90 118 91 15 0 13 -6 -14 -37z m1167 21 c30 -9 52 -18 49 -21 -5 -6 -116 25
-116 32 0 8 8 6 67 -11z m-62 -35 c5 -5 -5 -4 -23 2 -17 6 -32 13 -32 16 0 7
43 -8 55 -18z m-1370 -4 c-50 -18 -57 -18 -25 0 14 8 34 14 45 14 11 0 2 -6
-20 -14z m932 -47 c-2 -13 -4 -5 -4 17 -1 22 1 32 4 23 2 -10 2 -28 0 -40z
m548 42 c25 -11 -1 -11 -35 0 -20 6 -21 8 -5 8 11 0 29 -3 40 -8z m-1537 -15
c-2 -3 -32 -9 -67 -13 -34 -5 -58 -5 -54 -1 8 8 48 15 97 18 16 0 27 -1 24 -4z
m969 -62 c-3 -10 -5 -2 -5 17 0 19 2 27 5 18 2 -10 2 -26 0 -35z m-827 12 c0
-16 -167 -68 -176 -54 -4 8 32 20 106 34 19 4 42 11 50 16 18 10 20 10 20 4z
m879 -110 c-2 -17 -27 69 -27 90 0 11 6 -2 14 -30 7 -27 13 -54 13 -60z m21
73 c0 -18 -2 -20 -9 -8 -6 8 -7 18 -5 22 9 14 14 9 14 -14z m-814 -5 c-15 -4
-16 -7 -5 -14 12 -7 12 -9 -1 -9 -13 0 -13 -1 0 -10 11 -8 7 -9 -15 -5 -25 5
-27 4 -13 -5 14 -9 15 -14 6 -24 -13 -14 -51 -10 -43 5 3 4 13 6 23 3 9 -2 6
1 -7 8 l-23 12 33 12 c24 9 28 13 14 14 l-20 1 20 9 c11 5 27 8 35 8 9 0 7 -2
-4 -5z m773 -138 c-1 -11 -7 7 -15 40 -7 33 -13 69 -13 80 1 11 7 -7 15 -40 7
-33 13 -69 13 -80z m581 114 c11 -7 4 -8 -25 -3 -50 8 -58 14 -19 14 16 0 36
-5 44 -11z m-47 -56 c-7 -2 -21 -2 -30 0 -10 3 -4 5 12 5 17 0 24 -2 18 -5z
m-1358 -13 c4 -7 -3 -8 -22 -4 -38 9 -42 14 -10 14 14 0 29 -5 32 -10z m1641
-18 c-18 -16 -18 -16 -6 6 6 13 14 21 18 18 3 -4 -2 -14 -12 -24z m-441 -1
c33 -11 54 -20 47 -20 -17 -1 -122 29 -122 35 0 7 13 4 75 -15z m-1227 0 c9
-5 -2 -8 -30 -8 -31 0 -37 2 -23 8 27 10 37 10 53 0z m1781 -98 c50 -61 67
-89 58 -95 -8 -5 -7 -8 5 -8 22 0 94 -99 89 -125 -4 -27 -38 -72 -63 -86 -26
-14 -35 -4 -15 18 26 30 32 106 11 142 -10 17 -25 33 -34 36 -32 10 -70 56
-70 84 0 24 -3 28 -20 24 -20 -5 -24 3 -21 40 1 9 -5 20 -13 23 -17 7 -22 34
-6 34 5 0 41 -39 79 -87z m-1801 70 c-10 -2 -28 -2 -40 0 -13 2 -5 4 17 4 22
1 32 -1 23 -4z m1265 -9 c15 -4 27 -10 27 -15 0 -4 -21 -2 -46 6 -48 14 -78
33 -34 21 14 -3 37 -9 53 -12z m215 -14 c20 -12 28 -18 17 -14 -11 4 -49 16
-85 26 -63 18 -63 18 -17 13 26 -2 64 -14 85 -25z m-1488 2 c0 -4 -9 -8 -20
-9 -11 -1 -20 2 -20 8 0 5 9 9 20 9 11 0 20 -4 20 -8z m1278 -27 c24 -4 41 -9
39 -11 -8 -9 -87 9 -104 23 -17 13 -17 13 2 5 11 -5 39 -13 63 -17z m66 16 c4
-5 -3 -7 -14 -4 -23 6 -26 13 -6 13 8 0 17 -4 20 -9z m-114 -40 l35 -11 -35 5
c-19 3 -42 13 -50 22 -13 15 -13 15 0 6 8 -6 31 -16 50 -22z m258 14 c28 -9
54 -20 57 -25 4 -6 -3 -6 -20 0 -15 6 -52 11 -83 11 -31 1 -49 3 -39 6 9 2 17
9 17 14 0 12 8 12 68 -6z m-228 -46 c24 -7 24 -7 -5 -7 -16 0 -48 6 -70 13
l-40 13 45 -5 c25 -4 56 -10 70 -14z m77 15 c-3 -3 -12 -4 -19 -1 -8 3 -5 6 6
6 11 1 17 -2 13 -5z m158 -40 c17 -8 22 -12 12 -9 -10 3 -30 5 -43 5 -13 0
-24 5 -24 10 0 14 19 12 55 -6z m-293 -15 c21 -11 31 -11 24 0 -3 4 11 1 30
-8 34 -15 35 -16 12 -19 -23 -3 -138 34 -138 44 0 6 50 -6 72 -17z m338 -20
c27 -15 -11 -10 -45 6 l-30 14 30 -6 c17 -3 37 -9 45 -14z m250 -4 c13 -14 21
-25 18 -25 -2 0 -15 11 -28 25 -13 14 -21 25 -18 25 2 0 15 -11 28 -25z m-941
-29 c0 -17 -6 -47 -13 -66 l-13 -35 -5 65 c-6 73 -4 82 17 73 9 -3 15 -18 14
-37z m550 28 c2 -2 -16 -4 -42 -4 -25 0 -48 4 -51 9 -5 8 84 3 93 -5z m371
-14 c27 -15 40 -62 29 -105 -12 -44 -27 -37 -35 16 -4 24 -14 44 -26 50 -19
10 -38 5 -38 -12 0 -6 4 -8 8 -5 4 2 8 -3 9 -12 1 -9 3 -24 5 -32 5 -26 -16
-24 -32 3 -12 21 -12 29 0 54 7 15 12 34 11 41 -2 15 42 16 69 2z m-533 -16
c30 -9 52 -18 49 -21 -5 -6 -116 25 -116 32 0 8 8 6 67 -11z m308 2 c30 -14
29 -14 -15 -9 -25 3 -52 9 -60 14 -26 14 42 10 75 -5z m-68 -38 c-3 -8 -6 -5
-6 6 -1 11 2 17 5 13 3 -3 4 -12 1 -19z m-207 -12 c41 -13 84 -27 95 -30 11
-3 2 -4 -20 -2 -40 3 -194 55 -165 56 9 0 49 -11 90 -24z m183 17 c-7 -2 -19
-2 -25 0 -7 3 -2 5 12 5 14 0 19 -2 13 -5z m-233 -38 c32 -18 16 -19 -35 0
-32 11 -35 14 -15 14 14 0 36 -6 50 -14z m365 -6 c10 -10 -39 -2 -85 12 -16 5
-6 6 25 2 28 -3 54 -9 60 -14z m-87 -14 c24 -4 41 -9 39 -12 -9 -8 -117 9
-117 19 0 5 8 7 18 4 9 -2 36 -8 60 -11z m-285 -12 c-7 -2 -19 -2 -25 0 -7 3
-2 5 12 5 14 0 19 -2 13 -5z m50 -10 c-7 -2 -19 -2 -25 0 -7 3 -2 5 12 5 14 0
19 -2 13 -5z m44 -9 c-3 -3 -12 -4 -19 -1 -8 3 -5 6 6 6 11 1 17 -2 13 -5z
m298 -16 c7 -7 -8 -8 -45 -3 -30 5 -77 8 -105 7 -35 -1 -45 2 -35 9 18 12 171
1 185 -13z m-345 -3 c57 -10 49 -18 -10 -10 -30 4 -62 11 -70 17 -11 6 -6 7
15 4 17 -3 46 -8 65 -11z m139 -21 c10 -9 -45 -3 -59 6 -11 7 -5 8 20 4 19 -4
37 -8 39 -10z m208 -10 c-3 -3 -12 -4 -19 -1 -8 3 -5 6 6 6 11 1 17 -2 13 -5z
m-971 -35 c3 -5 1 -9 -5 -9 -17 0 -41 12 -41 20 0 10 38 1 46 -11z m620 3
c-10 -2 -22 0 -28 6 -6 6 0 7 19 4 21 -5 23 -7 9 -10z m314 -2 c8 -5 11 -10 5
-10 -5 0 -17 5 -25 10 -8 5 -10 10 -5 10 6 0 17 -5 25 -10z m-170 -25 c19 -7
28 -14 20 -14 -8 0 -28 6 -45 14 -39 17 -21 18 25 0z m-171 -11 c8 -7 -73 -2
-99 6 -17 6 -5 7 35 4 33 -3 61 -7 64 -10z m74 -1 c-7 -2 -19 -2 -25 0 -7 3
-2 5 12 5 14 0 19 -2 13 -5z m230 0 c-7 -2 -21 -2 -30 0 -10 3 -4 5 12 5 17 0
24 -2 18 -5z m47 -13 c8 -5 11 -10 5 -10 -5 0 -17 5 -25 10 -8 5 -10 10 -5 10
6 0 17 -5 25 -10z m-120 -22 c0 -4 -6 -8 -14 -8 -8 0 -17 4 -20 8 -2 4 4 8 15
8 10 0 19 -4 19 -8z m-282 -15 c29 -3 55 -10 59 -16 8 -14 -97 2 -127 20 -16
9 -18 12 -5 8 11 -4 44 -9 73 -12z m89 11 c-3 -3 -12 -4 -19 -1 -8 3 -5 6 6 6
11 1 17 -2 13 -5z m56 -11 c-7 -2 -21 -2 -30 0 -10 3 -4 5 12 5 17 0 24 -2 18
-5z m330 -40 c15 -7 27 -16 27 -19 0 -2 -13 2 -30 11 -18 9 -56 15 -100 15
-48 0 -69 3 -65 11 9 14 131 1 168 -18z m-64 -29 c10 -9 -35 -3 -49 6 -11 8
-7 9 15 4 17 -4 32 -8 34 -10z m-389 -24 c12 -8 11 -10 -5 -9 -11 1 -31 5 -45
9 -24 8 -24 8 5 9 17 0 37 -4 45 -9z m365 -1 c49 -8 73 -15 67 -21 -6 -6 -43
-5 -102 3 -59 8 -85 16 -73 20 25 10 23 10 108 -2z m-77 -36 c-10 -2 -28 -2
-40 0 -13 2 -5 4 17 4 22 1 32 -1 23 -4z"/>
<path d="M2907 1859 c7 -7 15 -10 18 -7 3 3 -2 9 -12 12 -14 6 -15 5 -6 -5z"/>
<path d="M4308 1083 c7 -3 16 -2 19 1 4 3 -2 6 -13 5 -11 0 -14 -3 -6 -6z"/>
<path d="M5111 3145 c-11 -62 -11 -83 0 -132 8 -32 19 -56 24 -53 6 3 8 10 5
15 -3 6 -5 63 -4 128 0 64 -2 117 -6 117 -3 0 -12 -34 -19 -75z"/>
<path d="M3794 3180 c4 -19 10 -53 16 -75 8 -36 9 -35 4 19 -2 32 -9 66 -15
75 -8 12 -9 7 -5 -19z"/>
<path d="M3886 3190 c3 -14 10 -32 15 -40 7 -13 8 -13 8 0 0 8 -6 26 -15 40
l-15 25 7 -25z"/>
<path d="M5531 3207 c2 -1 13 -9 24 -17 19 -14 19 -14 6 3 -7 9 -18 17 -24 17
-6 0 -8 -1 -6 -3z"/>
<path d="M5410 3178 c0 -9 9 -26 20 -39 l21 -24 -17 35 c-21 43 -24 47 -24 28z"/>
<path d="M2778 3163 c7 -3 16 -2 19 1 4 3 -2 6 -13 5 -11 0 -14 -3 -6 -6z"/>
<path d="M5783 3163 c9 -2 25 -2 35 0 9 3 1 5 -18 5 -19 0 -27 -2 -17 -5z"/>
<path d="M5850 3160 c8 -5 22 -9 30 -9 10 0 8 3 -5 9 -27 12 -43 12 -25 0z"/>
<path d="M3676 3078 c2 -35 6 -96 8 -136 5 -74 22 -98 20 -27 l-1 40 14 -30
c12 -25 13 -26 8 -5 -5 22 -18 97 -31 188 -9 57 -23 34 -18 -30z"/>
<path d="M5710 3126 c0 -3 9 -10 20 -16 11 -6 20 -8 20 -6 0 3 -9 10 -20 16
-11 6 -20 8 -20 6z"/>
<path d="M3435 3099 c-4 -6 -5 -12 -2 -15 2 -3 7 2 10 11 7 17 1 20 -8 4z"/>
<path d="M3644 3098 c-4 -7 -15 -24 -23 -38 -10 -15 -11 -21 -3 -16 13 7 46
66 38 66 -3 0 -8 -6 -12 -12z"/>
<path d="M5435 3075 c9 -24 38 -60 72 -90 31 -27 68 -69 83 -92 15 -23 30 -40
33 -36 8 7 73 -49 110 -95 15 -19 27 -30 27 -24 0 6 -26 38 -57 72 -31 34 -75
88 -97 120 -23 32 -61 73 -86 90 -25 18 -58 46 -73 64 l-28 31 16 -40z"/>
<path d="M5500 3080 c12 -16 22 -30 23 -30 1 0 17 -4 35 -10 29 -8 32 -7 22 5
-7 8 -18 15 -24 15 -7 0 -23 11 -36 25 -33 35 -46 31 -20 -5z"/>
<path d="M5371 3022 c-13 -66 -13 -77 2 -105 9 -19 15 -55 15 -88 -1 -46 3
-61 22 -80 20 -21 22 -22 15 -4 -16 43 -24 79 -20 83 3 3 10 -9 16 -27 8 -23
31 -45 85 -80 41 -27 74 -47 74 -44 0 9 -112 138 -121 139 -5 1 -13 2 -18 3
-25 3 -45 70 -50 171 l-6 105 -14 -73z"/>
<path d="M5627 3029 c7 -7 15 -10 18 -7 3 3 -2 9 -12 12 -14 6 -15 5 -6 -5z"/>
<path d="M3847 2978 c9 -24 22 -51 28 -61 11 -16 13 -16 19 -2 4 11 2 14 -6 9
-8 -5 -9 -2 -5 10 5 11 3 15 -5 10 -7 -5 -9 -2 -5 9 3 8 -1 21 -9 27 -8 7 -14
19 -14 26 0 8 -4 14 -10 14 -5 0 -2 -19 7 -42z"/>
<path d="M5424 3006 c-7 -19 21 -72 60 -109 17 -17 23 -24 12 -17 -12 10 -4
-15 28 -78 25 -50 48 -92 50 -92 9 0 -4 71 -22 122 -30 85 -117 203 -128 174z"/>
<path d="M4512 2985 c0 -16 2 -22 5 -12 2 9 2 23 0 30 -3 6 -5 -1 -5 -18z"/>
<path d="M5681 2984 c13 -14 37 -35 53 -47 l29 -20 -17 24 c-16 25 -69 69 -82
69 -4 0 3 -12 17 -26z"/>
<path d="M3376 2984 c-9 -24 -7 -74 3 -74 5 0 9 20 9 45 1 47 -2 55 -12 29z"/>
<path d="M3622 2980 c0 -14 2 -19 5 -12 2 6 2 18 0 25 -3 6 -5 1 -5 -13z"/>
<path d="M5580 2995 c0 -9 81 -124 92 -131 5 -3 0 14 -12 37 -20 43 -20 43 -1
19 11 -14 23 -33 27 -42 3 -10 10 -18 15 -18 5 0 0 18 -11 40 -11 22 -17 40
-13 40 3 0 -4 11 -17 25 -12 13 -27 22 -31 19 -5 -3 -18 0 -29 6 -11 6 -20 8
-20 5z m75 -35 c10 -11 16 -20 13 -20 -3 0 -13 9 -23 20 -10 11 -16 20 -13 20
3 0 13 -9 23 -20z"/>
<path d="M5075 2960 c2 -19 4 -36 5 -37 1 -2 3 -6 4 -10 1 -5 18 -37 38 -73
20 -36 53 -104 74 -152 20 -49 39 -86 42 -83 2 2 -4 24 -16 47 -38 82 -90 213
-97 247 -5 24 -10 30 -16 20 -7 -12 -9 -11 -9 1 -1 8 -7 29 -14 45 l-13 30 2
-35z"/>
<path d="M3298 2953 c-9 -10 -23 -34 -32 -53 l-17 -35 35 40 c20 22 36 46 36
53 0 16 -4 15 -22 -5z"/>
<path d="M3613 2905 c0 -27 2 -38 4 -22 2 15 2 37 0 50 -2 12 -4 0 -4 -28z"/>
<path d="M3948 2918 c11 -18 30 -59 42 -90 12 -32 25 -58 30 -58 13 0 30 -60
30 -109 0 -33 3 -42 10 -31 5 8 10 30 10 48 0 36 -43 151 -63 167 -7 6 -25 31
-40 58 -15 26 -30 47 -33 47 -3 0 3 -15 14 -32z"/>
<path d="M3516 2898 c-3 -13 -7 -42 -11 -66 -3 -24 -13 -55 -21 -70 -15 -24
-13 -23 15 6 28 29 31 39 31 92 0 61 -6 77 -14 38z"/>
<path d="M5760 2903 c1 -5 12 -28 25 -53 19 -36 24 -40 25 -22 0 27 -26 82
-40 82 -6 0 -10 -3 -10 -7z"/>
<path d="M3571 2870 c0 -19 4 -42 9 -50 8 -12 10 -10 9 10 -1 14 -5 36 -9 50
-7 23 -8 22 -9 -10z"/>
<path d="M3930 2898 c0 -4 5 -19 11 -35 22 -54 30 -243 15 -315 -7 -29 -3 -47
15 -87 12 -28 28 -51 35 -51 6 0 16 -6 22 -13 6 -7 40 -28 75 -45 52 -26 73
-45 116 -103 29 -39 55 -68 58 -65 3 3 -24 50 -61 105 -36 55 -66 103 -66 107
0 4 32 -26 70 -67 71 -75 94 -106 40 -54 -16 16 -30 24 -30 18 0 -6 7 -17 17
-24 9 -8 24 -26 33 -41 l17 -28 -1 33 c-2 36 -59 136 -116 203 l-39 44 -18
-37 c-10 -20 -24 -39 -32 -41 -7 -3 -4 5 7 16 11 11 24 41 27 66 7 46 25 64
25 26 0 -11 6 -20 13 -20 6 0 22 -15 35 -33 46 -66 75 -102 69 -87 -10 27 -69
164 -84 195 -7 17 -22 41 -33 55 l-19 25 4 -25 c3 -14 -2 -6 -9 17 -8 24 -22
53 -30 65 -14 19 -16 20 -16 5 0 -10 7 -25 15 -33 12 -13 11 -20 -7 -62 -14
-33 -21 -70 -22 -124 -1 -86 -16 -109 -16 -25 l0 52 -23 -35 c-32 -50 -34 -15
-3 44 25 47 27 87 5 126 -5 9 -6 1 -2 -19 4 -25 3 -32 -5 -27 -7 4 -12 1 -12
-6 0 -8 -7 -23 -16 -34 -8 -10 -12 -13 -9 -6 16 30 6 187 -15 252 -21 62 -39
103 -40 88z m217 -330 c-3 -8 -6 -5 -6 6 -1 11 2 17 5 13 3 -3 4 -12 1 -19z"/>
<path d="M3877 2879 c7 -7 15 -10 18 -7 3 3 -2 9 -12 12 -14 6 -15 5 -6 -5z"/>
<path d="M3700 2855 c-21 -23 -22 -30 -16 -105 3 -44 9 -94 12 -112 5 -27 3
-30 -6 -18 -10 12 -11 10 -6 -10 3 -14 6 -34 6 -45 0 -15 3 -16 12 -7 14 14
15 117 3 197 -5 37 -3 60 8 88 9 20 15 37 13 37 -1 0 -13 -11 -26 -25z"/>
<path d="M3374 2862 c3 -6 1 -12 -5 -14 -8 -3 -9 -18 -4 -46 7 -42 8 -43 28
-27 12 8 34 20 50 26 15 6 27 15 27 20 0 9 -41 32 -79 44 -15 5 -21 4 -17 -3z"/>
<path d="M4071 2846 c-1 -11 91 -207 96 -203 2 2 -19 51 -46 108 -27 57 -50
100 -50 95z"/>
<path d="M1898 2830 c41 -10 68 -34 77 -67 8 -34 3 -37 -28 -12 -27 20 -38 14
-15 -9 19 -19 -22 -15 -43 4 -22 20 -104 31 -113 15 -5 -7 6 -11 34 -11 51 0
80 -15 80 -41 0 -16 4 -18 28 -12 29 7 61 7 69 -1 12 -12 -11 -26 -43 -26 -19
0 -55 -5 -79 -11 l-44 -11 27 -22 c15 -13 34 -25 43 -29 16 -5 24 -30 36 -109
4 -34 2 -39 -21 -48 -20 -7 -26 -17 -27 -42 0 -18 -2 -44 -5 -58 -12 -75 -44
-303 -48 -355 -5 -47 -2 -67 13 -95 l19 -35 7 30 c4 17 9 37 12 45 3 8 8 59
12 112 7 88 14 119 25 107 4 -4 -8 -132 -23 -253 l-10 -79 47 -78 c26 -44 50
-79 53 -79 12 0 20 90 25 282 4 146 2 194 -9 220 -10 25 -12 50 -6 93 4 33 10
83 14 110 3 28 10 84 15 125 20 147 21 156 11 135 -8 -19 -9 -19 -16 -2 -4 9
-4 30 -1 45 4 15 7 35 7 45 0 9 5 17 10 17 5 0 -3 16 -18 36 -31 40 -91 75
-125 73 -17 -1 -15 -3 10 -9z m83 -299 c-12 -16 -21 -42 -21 -57 0 -44 -7 -24
-14 43 -7 60 -6 62 21 77 27 14 28 13 31 -10 2 -13 -6 -37 -17 -53z m-16 -221
c-16 -95 -28 -130 -46 -130 -12 0 -2 44 22 92 11 21 19 50 19 66 0 41 13 101
18 80 2 -9 -4 -58 -13 -108z m30 -235 c-14 -105 -25 -303 -20 -337 4 -23 3
-38 -3 -38 -6 0 -15 30 -22 68 -9 56 -8 91 8 217 11 83 18 155 15 160 -2 6 3
1 12 -10 11 -14 14 -31 10 -60z"/>
<path d="M4100 2836 c0 -2 8 -10 18 -17 15 -13 16 -12 3 4 -13 16 -21 21 -21
13z"/>
<path d="M5627 2805 c3 -22 10 -65 14 -95 8 -53 8 -53 4 15 -2 39 -8 81 -14
95 -9 21 -10 19 -4 -15z"/>
<path d="M3413 2765 l-38 -37 33 19 c37 20 58 41 49 49 -3 3 -23 -11 -44 -31z"/>
<path d="M3727 2787 c-4 -10 -7 -28 -6 -40 0 -21 1 -21 10 2 5 14 8 32 7 40
-3 13 -5 13 -11 -2z"/>
<path d="M2200 2785 c0 -3 11 -10 24 -15 18 -6 29 -23 39 -57 l15 -48 1 41 c1
22 -5 47 -11 56 -13 15 -68 34 -68 23z"/>
<path d="M3543 2734 c-18 -24 -29 -44 -24 -44 14 0 61 59 61 76 0 19 -1 19
-37 -32z"/>
<path d="M3617 2721 c-6 -23 -128 -85 -196 -100 l-36 -8 37 -8 c52 -10 198 39
198 66 0 8 -4 8 -14 0 -15 -12 -76 -33 -76 -25 0 2 22 15 50 29 l50 25 6 -24
c7 -31 -1 -56 -27 -84 -19 -21 -19 -22 -1 -22 30 0 55 63 42 108 -15 54 -26
69 -33 43z"/>
<path d="M1707 2693 c-9 -9 12 -33 29 -33 17 0 18 12 2 28 -14 14 -22 15 -31
5z"/>
<path d="M3933 2650 c0 -25 2 -35 4 -22 2 12 2 32 0 45 -2 12 -4 2 -4 -23z"/>
<path d="M5314 2664 c3 -9 6 -28 6 -43 0 -15 6 -35 13 -46 13 -16 14 -15 12
16 -3 47 -15 89 -27 89 -6 0 -7 -7 -4 -16z"/>
<path d="M5406 2667 c3 -10 9 -15 12 -12 3 3 0 11 -7 18 -10 9 -11 8 -5 -6z"/>
<path d="M5460 2660 c8 -5 29 -10 45 -10 23 0 27 3 15 10 -8 5 -28 10 -45 10
-23 0 -27 -3 -15 -10z"/>
<path d="M5851 2650 c0 -15 38 -91 39 -79 0 4 -9 26 -20 50 -11 24 -19 37 -19
29z"/>
<path d="M5817 2607 c5 -41 3 -48 -15 -54 -20 -8 -20 -8 4 -20 21 -10 24 -9
22 5 -2 9 2 16 8 15 13 -3 4 51 -14 82 -8 14 -9 8 -5 -28z"/>
<path d="M3771 2605 c-1 -11 -4 -31 -7 -45 -5 -22 -4 -23 6 -7 6 10 9 30 7 45
-3 18 -5 20 -6 7z"/>
<path d="M2145 2598 c-21 -11 -54 -48 -55 -60 0 -18 19 -5 49 32 17 22 31 40
29 40 -2 0 -12 -6 -23 -12z"/>
<path d="M6305 2601 c-3 -5 3 -12 13 -15 10 -3 27 -21 37 -38 l20 -33 3 27 c5
38 -14 68 -43 68 -13 0 -26 -4 -30 -9z"/>
<path d="M3873 2560 c0 -25 2 -35 4 -22 2 12 2 32 0 45 -2 12 -4 2 -4 -23z"/>
<path d="M3660 2582 c0 -7 5 -33 11 -58 11 -43 10 -47 -17 -76 l-29 -31 38 28
c42 31 45 46 17 106 -11 24 -20 38 -20 31z"/>
<path d="M6245 2573 c-63 -34 -50 -53 35 -53 35 0 50 3 41 9 -11 7 -11 9 0 14
11 4 8 11 -10 26 -28 25 -27 25 -66 4z"/>
<path d="M1757 2558 c-3 -12 -1 -30 5 -42 11 -20 11 -20 19 3 6 13 5 30 -1 42
-13 24 -16 24 -23 -3z"/>
<path d="M3255 2540 c-3 -11 -2 -28 4 -37 8 -15 10 -11 11 20 0 41 -5 47 -15
17z"/>
<path d="M3311 2528 c-5 -13 -19 -47 -30 -76 -12 -30 -23 -79 -26 -109 -4 -52
-3 -54 14 -39 9 8 22 42 29 74 7 34 21 67 32 77 21 19 28 75 10 75 -5 0 -10
-13 -10 -29 0 -17 -4 -33 -10 -36 -12 -7 -12 -1 -1 48 10 41 5 49 -8 15z"/>
<path d="M3846 2507 c-4 -27 -23 -75 -43 -108 -38 -66 -40 -90 -2 -34 13 19
27 35 31 35 10 0 31 101 26 130 -3 18 -6 12 -12 -23z"/>
<path d="M5330 2545 c0 -5 5 -17 10 -25 5 -8 10 -10 10 -5 0 6 -5 17 -10 25
-5 8 -10 11 -10 5z"/>
<path d="M3426 2528 c5 -8 1 -9 -12 -5 -18 7 -18 7 0 -8 11 -8 24 -15 29 -15
6 0 15 -6 21 -14 6 -8 22 -17 36 -20 l25 -6 -25 12 c-29 14 -41 29 -34 40 3 4
-3 5 -12 1 -11 -4 -15 -2 -11 4 4 6 0 14 -9 17 -10 4 -13 2 -8 -6z"/>
<path d="M5413 2505 c0 -22 2 -30 4 -17 2 12 2 30 0 40 -3 9 -5 -1 -4 -23z"/>
<path d="M1814 2515 c-3 -8 -4 -20 -1 -27 4 -8 8 -5 12 10 11 35 32 27 29 -10
-2 -18 -1 -24 2 -13 4 11 10 25 15 31 6 8 4 14 -7 18 -26 10 -44 7 -50 -9z"/>
<path d="M3548 2523 c7 -3 16 -2 19 1 4 3 -2 6 -13 5 -11 0 -14 -3 -6 -6z"/>
<path d="M3756 2482 c-10 -28 -16 -58 -14 -64 6 -18 41 77 36 98 -3 12 -10 0
-22 -34z"/>
<path d="M5286 2468 c2 -35 6 -76 10 -91 l6 -29 15 22 c13 19 14 30 4 74 -7
28 -18 59 -25 69 -12 15 -13 9 -10 -45z"/>
<path d="M3528 2488 c5 -5 19 -4 33 1 23 10 22 10 -8 8 -18 0 -29 -5 -25 -9z"/>
<path d="M3190 2448 c-28 -30 -27 -68 3 -69 l22 0 -22 -9 c-28 -11 -29 -24 -4
-49 11 -11 15 -23 10 -28 -5 -5 3 -21 21 -38 36 -35 46 -29 24 14 -9 18 -14
43 -11 57 3 19 2 22 -9 13 -11 -9 -12 -6 -3 20 6 17 9 45 7 61 -3 16 0 31 6
33 5 2 2 6 -7 10 -11 4 -24 -2 -37 -15z"/>
<path d="M4359 2443 c26 -38 49 -56 33 -27 -6 11 -20 28 -33 39 l-23 20 23
-32z"/>
<path d="M3887 2440 c-13 -53 -18 -115 -7 -100 8 13 10 13 10 -2 0 -9 -16 -33
-37 -53 l-36 -35 41 0 c36 0 42 3 42 21 0 19 -2 20 -17 8 -16 -12 -17 -12 -7
1 6 8 16 29 23 45 10 27 11 27 6 4 -6 -32 10 -82 42 -129 27 -40 29 -36 8 17
-15 39 -51 179 -58 223 l-3 25 -7 -25z"/>
<path d="M5540 2426 c0 -3 9 -10 20 -16 11 -6 20 -8 20 -6 0 3 -9 10 -20 16
-11 6 -20 8 -20 6z"/>
<path d="M3970 2417 c0 -17 41 -97 50 -97 6 0 10 -6 10 -14 0 -15 96 -106 112
-106 5 0 7 4 4 9 -4 5 4 7 16 4 17 -4 12 3 -17 24 -47 36 -148 139 -163 168
-6 11 -12 16 -12 12z"/>
<path d="M3340 2392 c0 -10 33 -42 43 -42 15 0 6 30 -12 40 -24 12 -31 13 -31
2z"/>
<path d="M4933 2378 c-34 -16 -28 -29 7 -17 17 6 30 15 30 20 0 11 -9 11 -37
-3z"/>
<path d="M3315 2344 c8 -44 53 -149 60 -142 3 3 1 17 -5 32 -16 42 10 28 38
-20 21 -36 22 -37 16 -9 -4 17 -14 43 -23 59 -9 16 -22 40 -30 55 -35 66 -67
80 -56 25z"/>
<path d="M3422 2360 c0 -14 2 -19 5 -12 2 6 2 18 0 25 -3 6 -5 1 -5 -13z"/>
<path d="M3514 2355 c11 -8 29 -15 40 -15 26 0 16 9 -25 20 -31 9 -32 8 -15
-5z"/>
<path d="M4069 2332 c15 -27 151 -144 151 -129 0 2 -8 19 -17 39 -21 42 -65
81 -111 96 -29 10 -31 9 -23 -6z"/>
<path d="M3491 2292 c-9 -38 -9 -58 1 -95 7 -26 15 -47 19 -47 4 0 35 16 68
36 62 37 141 114 140 136 0 8 -5 5 -12 -6 -26 -42 -61 -77 -88 -91 -32 -17
-89 -20 -89 -5 0 6 9 10 20 10 12 0 34 7 50 15 35 18 31 44 -6 37 -19 -3 -23
-1 -18 12 5 12 0 16 -17 16 -12 0 -30 7 -39 15 -15 13 -17 10 -29 -33z"/>
<path d="M3976 2300 c7 -39 35 -113 40 -107 2 2 -7 35 -21 73 -14 38 -22 53
-19 34z"/>
<path d="M4585 2319 c-22 -5 -78 -16 -125 -23 l-85 -14 75 4 c86 6 168 22 176
35 3 5 4 8 2 8 -2 -1 -21 -5 -43 -10z"/>
<path d="M3291 2234 c-1 -12 6 -28 16 -35 15 -13 15 -12 6 6 -6 11 -13 27 -16
35 -4 10 -6 8 -6 -6z"/>
<path d="M3234 2207 c11 -7 42 -32 70 -57 50 -45 53 -38 6 16 -14 16 -41 34
-60 41 -27 9 -31 9 -16 0z"/>
<path d="M3755 2206 c-27 -6 -49 -16 -47 -21 4 -17 64 -8 85 14 12 12 19 21
17 20 -3 0 -27 -6 -55 -13z"/>
<path d="M3855 2200 l-30 -8 30 -1 c17 0 37 4 45 9 13 9 13 10 0 9 -8 -1 -28
-5 -45 -9z"/>
<path d="M4087 2178 c4 -32 4 -32 -12 -13 -15 19 -15 18 0 -12 8 -18 29 -39
45 -48 34 -17 44 -19 35 -5 -3 6 1 7 9 4 9 -3 16 -1 16 5 0 7 14 18 30 25 l31
13 -43 17 c-24 10 -58 24 -76 32 -43 18 -41 19 -35 -18z"/>
<path d="M5000 2200 c-9 -6 -10 -10 -3 -10 6 0 15 5 18 10 8 12 4 12 -15 0z"/>
<path d="M3615 2179 c-19 -12 -24 -19 -14 -19 9 0 27 9 40 20 30 25 13 25 -26
-1z"/>
<path d="M4160 2196 c0 -2 7 -7 16 -10 8 -3 12 -2 9 4 -6 10 -25 14 -25 6z"/>
<path d="M3994 2163 c18 -36 16 -41 -8 -17 -15 14 -16 14 -16 -5 0 -11 -5 -23
-11 -27 -7 -4 -9 0 -5 14 9 27 -5 34 -35 17 -55 -32 -84 -43 -90 -34 -3 6 -14
9 -25 9 -10 -1 -62 -2 -114 -4 -52 -1 -114 -6 -137 -10 l-42 -8 37 -26 c20
-13 50 -29 65 -34 33 -12 147 -1 126 12 -16 11 -5 15 53 23 20 3 59 16 87 30
28 13 46 18 40 11 -6 -8 -8 -14 -3 -14 5 0 2 -5 -6 -10 -13 -8 -12 -10 3 -10
10 0 28 7 41 15 21 14 28 12 92 -20 71 -35 76 -43 14 -24 -61 19 -110 27 -116
18 -9 -16 24 -65 63 -92 35 -24 43 -26 108 -19 47 5 69 12 68 20 -2 7 3 12 11
12 10 0 14 10 13 33 0 17 3 41 8 52 8 18 7 18 -19 -3 -49 -38 -66 -30 -189 93
l-30 30 17 -32z m-10 -149 c3 -8 2 -12 -4 -9 -6 3 -10 10 -10 16 0 14 7 11 14
-7z m136 -12 l30 -18 -33 0 c-17 0 -41 -4 -52 -8 -18 -7 -18 -6 -2 4 9 6 17
18 17 25 0 19 3 19 40 -3z"/>
<path d="M4979 2143 c-13 -16 -12 -17 4 -4 16 13 21 21 13 21 -2 0 -10 -8 -17
-17z"/>
<path d="M3568 2136 c-20 -6 -40 -15 -45 -20 -4 -5 3 -5 17 -1 44 14 70 24 70
30 0 3 -1 5 -2 4 -2 -1 -20 -6 -40 -13z"/>
<path d="M3658 2133 c7 -3 16 -2 19 1 4 3 -2 6 -13 5 -11 0 -14 -3 -6 -6z"/>
<path d="M3260 2123 c0 -16 56 -76 68 -72 7 2 -5 21 -28 43 -22 21 -40 34 -40
29z"/>
<path d="M4160 2085 c-16 -9 -19 -14 -9 -15 8 0 24 7 35 15 24 18 7 19 -26 0z"/>
<path d="M3449 2025 c29 -14 61 -25 70 -24 20 1 -53 33 -94 42 -19 4 -10 -3
24 -18z"/>
<path d="M4939 2033 c-13 -17 -13 -17 6 -3 11 8 22 16 24 17 2 2 0 3 -6 3 -6
0 -17 -8 -24 -17z"/>
<path d="M3354 2005 c11 -8 25 -15 30 -15 6 0 2 7 -8 15 -11 8 -25 15 -30 15
-6 0 -2 -7 8 -15z"/>
<path d="M4262 1902 c-6 -15 -27 -48 -47 -74 -29 -39 -32 -50 -21 -60 7 -7 12
-19 11 -28 -1 -8 0 -10 2 -3 2 6 20 17 39 23 19 7 34 18 34 27 0 14 -2 14 -18
0 -22 -20 -47 -23 -36 -4 5 7 0 6 -11 -3 -17 -13 -18 -13 -10 0 4 8 15 24 25
35 20 24 55 103 49 110 -3 2 -10 -8 -17 -23z"/>
<path d="M2057 1760 c-3 -11 -2 -20 3 -20 12 0 21 28 11 35 -5 2 -11 -4 -14
-15z"/>
<path d="M4846 1761 c-4 -5 3 -7 14 -4 23 6 26 13 6 13 -8 0 -17 -4 -20 -9z"/>
<path d="M4258 1739 c-10 -5 -18 -14 -18 -20 0 -5 9 -4 20 3 24 15 37 4 20
-17 -18 -21 -3 -33 16 -13 10 10 14 23 9 37 -7 23 -21 26 -47 10z"/>
<path d="M4211 1710 c-2 -15 85 -228 101 -247 26 -32 22 -7 -9 60 -51 110 -92
193 -92 187z"/>
<path d="M4815 1700 c-3 -6 1 -7 9 -4 18 7 21 14 7 14 -6 0 -13 -4 -16 -10z"/>
<path d="M4307 1647 c-25 -62 -21 -78 9 -30 16 28 22 48 17 57 -6 11 -13 4
-26 -27z"/>
<path d="M4820 1670 c-8 -5 -10 -10 -5 -10 6 0 17 5 25 10 8 5 11 10 5 10 -5
0 -17 -5 -25 -10z"/>
<path d="M2045 1560 c3 -5 11 -10 16 -10 6 0 7 5 4 10 -3 6 -11 10 -16 10 -6
0 -7 -4 -4 -10z"/>
<path d="M4320 1526 c0 -8 4 -17 9 -20 5 -4 7 3 4 14 -6 23 -13 26 -13 6z"/>
<path d="M4720 1530 c-8 -5 -10 -10 -5 -10 6 0 17 5 25 10 8 5 11 10 5 10 -5
0 -17 -5 -25 -10z"/>
<path d="M4400 1463 c0 -16 -3 -39 -7 -52 -5 -20 -3 -23 10 -18 14 5 17 -1 17
-37 0 -49 7 -76 21 -76 5 0 4 12 -1 26 -20 52 -1 72 20 20 8 -20 9 -20 9 5 1
15 -6 32 -14 39 -16 14 -21 35 -5 25 5 -3 3 9 -6 27 -8 18 -17 41 -21 51 -8
26 -23 20 -23 -10z"/>
<path d="M4588 1423 c7 -3 16 -2 19 1 4 3 -2 6 -13 5 -11 0 -14 -3 -6 -6z"/>
<path d="M4336 1378 c3 -13 15 -46 26 -75 18 -49 20 -51 36 -35 17 16 17 17 0
24 -10 4 -18 13 -18 19 0 20 -33 89 -43 89 -4 0 -5 -10 -1 -22z"/>
<path d="M4446 1231 c-9 -9 -16 -23 -16 -30 0 -7 -5 -9 -10 -6 -7 4 -7 13 0
25 9 16 8 18 -5 14 -12 -5 -14 -14 -9 -38 10 -46 43 -144 69 -206 13 -30 28
-69 35 -87 17 -46 37 -49 50 -7 10 29 8 49 -9 117 -41 159 -40 157 -78 157
-18 0 -33 4 -33 9 0 17 30 33 55 29 21 -4 23 -3 13 9 -23 28 -45 33 -62 14z"/>
</g>
</svg>
